<?xml version="1.0" encoding="UTF-8" standalone="no"?>
<!DOCTYPE svg PUBLIC "-//W3C//DTD SVG 1.1//EN"
 "http://www.w3.org/Graphics/SVG/1.1/DTD/svg11.dtd">
<!-- Generated by graphviz version 2.43.0 (0)
 -->
<!-- Pages: 1 -->
<svg width="1067pt" height="340pt"
 viewBox="0.00 0.00 1067.00 340.00" xmlns="http://www.w3.org/2000/svg" xmlns:xlink="http://www.w3.org/1999/xlink">
<g id="graph0" class="graph" transform="scale(1 1) rotate(0) translate(4 336)">
<polygon fill="white" stroke="transparent" points="-4,4 -4,-336 1063,-336 1063,4 -4,4"/>
<!-- 0000000000000000000000000000 -->
<g id="node1" class="node">
<title>0000000000000000000000000000</title>
<polygon fill="transparent" stroke="transparent" points="1041,-332 0,-332 0,-276 1041,-276 1041,-332"/>
<path fill="#6f6f6f" stroke="transparent" d="M21.17,-283C21.17,-283 30.83,-283 30.83,-283 35.67,-283 40.5,-287.83 40.5,-292.67 40.5,-292.67 40.5,-315.33 40.5,-315.33 40.5,-320.17 35.67,-325 30.83,-325 30.83,-325 21.17,-325 21.17,-325 16.33,-325 11.5,-320.17 11.5,-315.33 11.5,-315.33 11.5,-292.67 11.5,-292.67 11.5,-287.83 16.33,-283 21.17,-283"/>
<path fill="none" stroke="black" d="M21.17,-283C21.17,-283 30.83,-283 30.83,-283 35.67,-283 40.5,-287.83 40.5,-292.67 40.5,-292.67 40.5,-315.33 40.5,-315.33 40.5,-320.17 35.67,-325 30.83,-325 30.83,-325 21.17,-325 21.17,-325 16.33,-325 11.5,-320.17 11.5,-315.33 11.5,-315.33 11.5,-292.67 11.5,-292.67 11.5,-287.83 16.33,-283 21.17,-283"/>
<text text-anchor="start" x="17.5" y="-307.8" font-family="Times,serif" font-size="14.00">akt</text>
<text text-anchor="start" x="22.5" y="-292.8" font-family="Times,serif" font-size="14.00">0</text>
<path fill="#6f6f6f" stroke="transparent" d="M53.17,-283C53.17,-283 63.83,-283 63.83,-283 69.17,-283 74.5,-288.33 74.5,-293.67 74.5,-293.67 74.5,-314.33 74.5,-314.33 74.5,-319.67 69.17,-325 63.83,-325 63.83,-325 53.17,-325 53.17,-325 47.83,-325 42.5,-319.67 42.5,-314.33 42.5,-314.33 42.5,-293.67 42.5,-293.67 42.5,-288.33 47.83,-283 53.17,-283"/>
<path fill="none" stroke="black" d="M53.17,-283C53.17,-283 63.83,-283 63.83,-283 69.17,-283 74.5,-288.33 74.5,-293.67 74.5,-293.67 74.5,-314.33 74.5,-314.33 74.5,-319.67 69.17,-325 63.83,-325 63.83,-325 53.17,-325 53.17,-325 47.83,-325 42.5,-319.67 42.5,-314.33 42.5,-314.33 42.5,-293.67 42.5,-293.67 42.5,-288.33 47.83,-283 53.17,-283"/>
<text text-anchor="start" x="48.5" y="-307.8" font-family="Times,serif" font-size="14.00">ap1</text>
<text text-anchor="start" x="55" y="-292.8" font-family="Times,serif" font-size="14.00">0</text>
<path fill="#6f6f6f" stroke="transparent" d="M88.5,-283C88.5,-283 101.5,-283 101.5,-283 107.5,-283 113.5,-289 113.5,-295 113.5,-295 113.5,-313 113.5,-313 113.5,-319 107.5,-325 101.5,-325 101.5,-325 88.5,-325 88.5,-325 82.5,-325 76.5,-319 76.5,-313 76.5,-313 76.5,-295 76.5,-295 76.5,-289 82.5,-283 88.5,-283"/>
<path fill="none" stroke="black" d="M88.5,-283C88.5,-283 101.5,-283 101.5,-283 107.5,-283 113.5,-289 113.5,-295 113.5,-295 113.5,-313 113.5,-313 113.5,-319 107.5,-325 101.5,-325 101.5,-325 88.5,-325 88.5,-325 82.5,-325 76.5,-319 76.5,-313 76.5,-313 76.5,-295 76.5,-295 76.5,-289 82.5,-283 88.5,-283"/>
<text text-anchor="start" x="82.5" y="-307.8" font-family="Times,serif" font-size="14.00">ask1</text>
<text text-anchor="start" x="91.5" y="-292.8" font-family="Times,serif" font-size="14.00">0</text>
<path fill="#6f6f6f" stroke="transparent" d="M127.5,-283C127.5,-283 139.5,-283 139.5,-283 145.5,-283 151.5,-289 151.5,-295 151.5,-295 151.5,-313 151.5,-313 151.5,-319 145.5,-325 139.5,-325 139.5,-325 127.5,-325 127.5,-325 121.5,-325 115.5,-319 115.5,-313 115.5,-313 115.5,-295 115.5,-295 115.5,-289 121.5,-283 127.5,-283"/>
<path fill="none" stroke="black" d="M127.5,-283C127.5,-283 139.5,-283 139.5,-283 145.5,-283 151.5,-289 151.5,-295 151.5,-295 151.5,-313 151.5,-313 151.5,-319 145.5,-325 139.5,-325 139.5,-325 127.5,-325 127.5,-325 121.5,-325 115.5,-319 115.5,-313 115.5,-313 115.5,-295 115.5,-295 115.5,-289 121.5,-283 127.5,-283"/>
<text text-anchor="start" x="121.5" y="-307.8" font-family="Times,serif" font-size="14.00">cjun</text>
<text text-anchor="start" x="130" y="-292.8" font-family="Times,serif" font-size="14.00">0</text>
<path fill="#6f6f6f" stroke="transparent" d="M163.5,-283C163.5,-283 173.5,-283 173.5,-283 178.5,-283 183.5,-288 183.5,-293 183.5,-293 183.5,-315 183.5,-315 183.5,-320 178.5,-325 173.5,-325 173.5,-325 163.5,-325 163.5,-325 158.5,-325 153.5,-320 153.5,-315 153.5,-315 153.5,-293 153.5,-293 153.5,-288 158.5,-283 163.5,-283"/>
<path fill="none" stroke="black" d="M163.5,-283C163.5,-283 173.5,-283 173.5,-283 178.5,-283 183.5,-288 183.5,-293 183.5,-293 183.5,-315 183.5,-315 183.5,-320 178.5,-325 173.5,-325 173.5,-325 163.5,-325 163.5,-325 158.5,-325 153.5,-320 153.5,-315 153.5,-315 153.5,-293 153.5,-293 153.5,-288 158.5,-283 163.5,-283"/>
<text text-anchor="start" x="159.5" y="-307.8" font-family="Times,serif" font-size="14.00">egf</text>
<text text-anchor="start" x="165" y="-292.8" font-family="Times,serif" font-size="14.00">0</text>
<path fill="#6f6f6f" stroke="transparent" d="M196.83,-283C196.83,-283 208.17,-283 208.17,-283 213.83,-283 219.5,-288.67 219.5,-294.33 219.5,-294.33 219.5,-313.67 219.5,-313.67 219.5,-319.33 213.83,-325 208.17,-325 208.17,-325 196.83,-325 196.83,-325 191.17,-325 185.5,-319.33 185.5,-313.67 185.5,-313.67 185.5,-294.33 185.5,-294.33 185.5,-288.67 191.17,-283 196.83,-283"/>
<path fill="none" stroke="black" d="M196.83,-283C196.83,-283 208.17,-283 208.17,-283 213.83,-283 219.5,-288.67 219.5,-294.33 219.5,-294.33 219.5,-313.67 219.5,-313.67 219.5,-319.33 213.83,-325 208.17,-325 208.17,-325 196.83,-325 196.83,-325 191.17,-325 185.5,-319.33 185.5,-313.67 185.5,-313.67 185.5,-294.33 185.5,-294.33 185.5,-288.67 191.17,-283 196.83,-283"/>
<text text-anchor="start" x="191.5" y="-307.8" font-family="Times,serif" font-size="14.00">egfr</text>
<text text-anchor="start" x="199" y="-292.8" font-family="Times,serif" font-size="14.00">0</text>
<path fill="#6f6f6f" stroke="transparent" d="M231.5,-283C231.5,-283 241.5,-283 241.5,-283 246.5,-283 251.5,-288 251.5,-293 251.5,-293 251.5,-315 251.5,-315 251.5,-320 246.5,-325 241.5,-325 241.5,-325 231.5,-325 231.5,-325 226.5,-325 221.5,-320 221.5,-315 221.5,-315 221.5,-293 221.5,-293 221.5,-288 226.5,-283 231.5,-283"/>
<path fill="none" stroke="black" d="M231.5,-283C231.5,-283 241.5,-283 241.5,-283 246.5,-283 251.5,-288 251.5,-293 251.5,-293 251.5,-315 251.5,-315 251.5,-320 246.5,-325 241.5,-325 241.5,-325 231.5,-325 231.5,-325 226.5,-325 221.5,-320 221.5,-315 221.5,-315 221.5,-293 221.5,-293 221.5,-288 226.5,-283 231.5,-283"/>
<text text-anchor="start" x="227.5" y="-307.8" font-family="Times,serif" font-size="14.00">erk</text>
<text text-anchor="start" x="233" y="-292.8" font-family="Times,serif" font-size="14.00">0</text>
<path fill="#6f6f6f" stroke="transparent" d="M261.83,-283C261.83,-283 270.17,-283 270.17,-283 274.33,-283 278.5,-287.17 278.5,-291.33 278.5,-291.33 278.5,-316.67 278.5,-316.67 278.5,-320.83 274.33,-325 270.17,-325 270.17,-325 261.83,-325 261.83,-325 257.67,-325 253.5,-320.83 253.5,-316.67 253.5,-316.67 253.5,-291.33 253.5,-291.33 253.5,-287.17 257.67,-283 261.83,-283"/>
<path fill="none" stroke="black" d="M261.83,-283C261.83,-283 270.17,-283 270.17,-283 274.33,-283 278.5,-287.17 278.5,-291.33 278.5,-291.33 278.5,-316.67 278.5,-316.67 278.5,-320.83 274.33,-325 270.17,-325 270.17,-325 261.83,-325 261.83,-325 257.67,-325 253.5,-320.83 253.5,-316.67 253.5,-316.67 253.5,-291.33 253.5,-291.33 253.5,-287.17 257.67,-283 261.83,-283"/>
<text text-anchor="start" x="259.5" y="-307.8" font-family="Times,serif" font-size="14.00">ex</text>
<text text-anchor="start" x="262.5" y="-292.8" font-family="Times,serif" font-size="14.00">0</text>
<path fill="#6f6f6f" stroke="transparent" d="M292.5,-283C292.5,-283 306.5,-283 306.5,-283 312.5,-283 318.5,-289 318.5,-295 318.5,-295 318.5,-313 318.5,-313 318.5,-319 312.5,-325 306.5,-325 306.5,-325 292.5,-325 292.5,-325 286.5,-325 280.5,-319 280.5,-313 280.5,-313 280.5,-295 280.5,-295 280.5,-289 286.5,-283 292.5,-283"/>
<path fill="none" stroke="black" d="M292.5,-283C292.5,-283 306.5,-283 306.5,-283 312.5,-283 318.5,-289 318.5,-295 318.5,-295 318.5,-313 318.5,-313 318.5,-319 312.5,-325 306.5,-325 306.5,-325 292.5,-325 292.5,-325 286.5,-325 280.5,-319 280.5,-313 280.5,-313 280.5,-295 280.5,-295 280.5,-289 286.5,-283 292.5,-283"/>
<text text-anchor="start" x="286.5" y="-307.8" font-family="Times,serif" font-size="14.00">gsk3</text>
<text text-anchor="start" x="296" y="-292.8" font-family="Times,serif" font-size="14.00">0</text>
<path fill="#6f6f6f" stroke="transparent" d="M330.5,-283C330.5,-283 340.5,-283 340.5,-283 345.5,-283 350.5,-288 350.5,-293 350.5,-293 350.5,-315 350.5,-315 350.5,-320 345.5,-325 340.5,-325 340.5,-325 330.5,-325 330.5,-325 325.5,-325 320.5,-320 320.5,-315 320.5,-315 320.5,-293 320.5,-293 320.5,-288 325.5,-283 330.5,-283"/>
<path fill="none" stroke="black" d="M330.5,-283C330.5,-283 340.5,-283 340.5,-283 345.5,-283 350.5,-288 350.5,-293 350.5,-293 350.5,-315 350.5,-315 350.5,-320 345.5,-325 340.5,-325 340.5,-325 330.5,-325 330.5,-325 325.5,-325 320.5,-320 320.5,-315 320.5,-315 320.5,-293 320.5,-293 320.5,-288 325.5,-283 330.5,-283"/>
<text text-anchor="start" x="326.5" y="-307.8" font-family="Times,serif" font-size="14.00">ikb</text>
<text text-anchor="start" x="332" y="-292.8" font-family="Times,serif" font-size="14.00">0</text>
<path fill="#6f6f6f" stroke="transparent" d="M362.5,-283C362.5,-283 372.5,-283 372.5,-283 377.5,-283 382.5,-288 382.5,-293 382.5,-293 382.5,-315 382.5,-315 382.5,-320 377.5,-325 372.5,-325 372.5,-325 362.5,-325 362.5,-325 357.5,-325 352.5,-320 352.5,-315 352.5,-315 352.5,-293 352.5,-293 352.5,-288 357.5,-283 362.5,-283"/>
<path fill="none" stroke="black" d="M362.5,-283C362.5,-283 372.5,-283 372.5,-283 377.5,-283 382.5,-288 382.5,-293 382.5,-293 382.5,-315 382.5,-315 382.5,-320 377.5,-325 372.5,-325 372.5,-325 362.5,-325 362.5,-325 357.5,-325 352.5,-320 352.5,-315 352.5,-315 352.5,-293 352.5,-293 352.5,-288 357.5,-283 362.5,-283"/>
<text text-anchor="start" x="358.5" y="-307.8" font-family="Times,serif" font-size="14.00">ikk</text>
<text text-anchor="start" x="364" y="-292.8" font-family="Times,serif" font-size="14.00">0</text>
<path fill="#6f6f6f" stroke="transparent" d="M394.5,-283C394.5,-283 404.5,-283 404.5,-283 409.5,-283 414.5,-288 414.5,-293 414.5,-293 414.5,-315 414.5,-315 414.5,-320 409.5,-325 404.5,-325 404.5,-325 394.5,-325 394.5,-325 389.5,-325 384.5,-320 384.5,-315 384.5,-315 384.5,-293 384.5,-293 384.5,-288 389.5,-283 394.5,-283"/>
<path fill="none" stroke="black" d="M394.5,-283C394.5,-283 404.5,-283 404.5,-283 409.5,-283 414.5,-288 414.5,-293 414.5,-293 414.5,-315 414.5,-315 414.5,-320 409.5,-325 404.5,-325 404.5,-325 394.5,-325 394.5,-325 389.5,-325 384.5,-320 384.5,-315 384.5,-315 384.5,-293 384.5,-293 384.5,-288 389.5,-283 394.5,-283"/>
<text text-anchor="start" x="390.5" y="-307.8" font-family="Times,serif" font-size="14.00">jnk</text>
<text text-anchor="start" x="396" y="-292.8" font-family="Times,serif" font-size="14.00">0</text>
<path fill="#6f6f6f" stroke="transparent" d="M428.5,-283C428.5,-283 454.5,-283 454.5,-283 460.5,-283 466.5,-289 466.5,-295 466.5,-295 466.5,-313 466.5,-313 466.5,-319 460.5,-325 454.5,-325 454.5,-325 428.5,-325 428.5,-325 422.5,-325 416.5,-319 416.5,-313 416.5,-313 416.5,-295 416.5,-295 416.5,-289 422.5,-283 428.5,-283"/>
<path fill="none" stroke="black" d="M428.5,-283C428.5,-283 454.5,-283 454.5,-283 460.5,-283 466.5,-289 466.5,-295 466.5,-295 466.5,-313 466.5,-313 466.5,-319 460.5,-325 454.5,-325 454.5,-325 428.5,-325 428.5,-325 422.5,-325 416.5,-319 416.5,-313 416.5,-313 416.5,-295 416.5,-295 416.5,-289 422.5,-283 428.5,-283"/>
<text text-anchor="start" x="422.5" y="-307.8" font-family="Times,serif" font-size="14.00">map3k</text>
<text text-anchor="start" x="438" y="-292.8" font-family="Times,serif" font-size="14.00">0</text>
<path fill="#6f6f6f" stroke="transparent" d="M480.5,-283C480.5,-283 506.5,-283 506.5,-283 512.5,-283 518.5,-289 518.5,-295 518.5,-295 518.5,-313 518.5,-313 518.5,-319 512.5,-325 506.5,-325 506.5,-325 480.5,-325 480.5,-325 474.5,-325 468.5,-319 468.5,-313 468.5,-313 468.5,-295 468.5,-295 468.5,-289 474.5,-283 480.5,-283"/>
<path fill="none" stroke="black" d="M480.5,-283C480.5,-283 506.5,-283 506.5,-283 512.5,-283 518.5,-289 518.5,-295 518.5,-295 518.5,-313 518.5,-313 518.5,-319 512.5,-325 506.5,-325 506.5,-325 480.5,-325 480.5,-325 474.5,-325 468.5,-319 468.5,-313 468.5,-313 468.5,-295 468.5,-295 468.5,-289 474.5,-283 480.5,-283"/>
<text text-anchor="start" x="474.5" y="-307.8" font-family="Times,serif" font-size="14.00">map3k</text>
<text text-anchor="start" x="490" y="-292.8" font-family="Times,serif" font-size="14.00">0</text>
<path fill="#6f6f6f" stroke="transparent" d="M532.5,-283C532.5,-283 545.5,-283 545.5,-283 551.5,-283 557.5,-289 557.5,-295 557.5,-295 557.5,-313 557.5,-313 557.5,-319 551.5,-325 545.5,-325 545.5,-325 532.5,-325 532.5,-325 526.5,-325 520.5,-319 520.5,-313 520.5,-313 520.5,-295 520.5,-295 520.5,-289 526.5,-283 532.5,-283"/>
<path fill="none" stroke="black" d="M532.5,-283C532.5,-283 545.5,-283 545.5,-283 551.5,-283 557.5,-289 557.5,-295 557.5,-295 557.5,-313 557.5,-313 557.5,-319 551.5,-325 545.5,-325 545.5,-325 532.5,-325 532.5,-325 526.5,-325 520.5,-319 520.5,-313 520.5,-313 520.5,-295 520.5,-295 520.5,-289 526.5,-283 532.5,-283"/>
<text text-anchor="start" x="526.5" y="-307.8" font-family="Times,serif" font-size="14.00">mek</text>
<text text-anchor="start" x="535.5" y="-292.8" font-family="Times,serif" font-size="14.00">0</text>
<path fill="#6f6f6f" stroke="transparent" d="M571.5,-283C571.5,-283 591.5,-283 591.5,-283 597.5,-283 603.5,-289 603.5,-295 603.5,-295 603.5,-313 603.5,-313 603.5,-319 597.5,-325 591.5,-325 591.5,-325 571.5,-325 571.5,-325 565.5,-325 559.5,-319 559.5,-313 559.5,-313 559.5,-295 559.5,-295 559.5,-289 565.5,-283 571.5,-283"/>
<path fill="none" stroke="black" d="M571.5,-283C571.5,-283 591.5,-283 591.5,-283 597.5,-283 603.5,-289 603.5,-295 603.5,-295 603.5,-313 603.5,-313 603.5,-319 597.5,-325 591.5,-325 591.5,-325 571.5,-325 571.5,-325 565.5,-325 559.5,-319 559.5,-313 559.5,-313 559.5,-295 559.5,-295 559.5,-289 565.5,-283 571.5,-283"/>
<text text-anchor="start" x="565.5" y="-307.8" font-family="Times,serif" font-size="14.00">mkk4</text>
<text text-anchor="start" x="578" y="-292.8" font-family="Times,serif" font-size="14.00">0</text>
<path fill="#6f6f6f" stroke="transparent" d="M617.5,-283C617.5,-283 637.5,-283 637.5,-283 643.5,-283 649.5,-289 649.5,-295 649.5,-295 649.5,-313 649.5,-313 649.5,-319 643.5,-325 637.5,-325 637.5,-325 617.5,-325 617.5,-325 611.5,-325 605.5,-319 605.5,-313 605.5,-313 605.5,-295 605.5,-295 605.5,-289 611.5,-283 617.5,-283"/>
<path fill="none" stroke="black" d="M617.5,-283C617.5,-283 637.5,-283 637.5,-283 643.5,-283 649.5,-289 649.5,-295 649.5,-295 649.5,-313 649.5,-313 649.5,-319 643.5,-325 637.5,-325 637.5,-325 617.5,-325 617.5,-325 611.5,-325 605.5,-319 605.5,-313 605.5,-313 605.5,-295 605.5,-295 605.5,-289 611.5,-283 617.5,-283"/>
<text text-anchor="start" x="611.5" y="-307.8" font-family="Times,serif" font-size="14.00">mkk7</text>
<text text-anchor="start" x="624" y="-292.8" font-family="Times,serif" font-size="14.00">0</text>
<path fill="#6f6f6f" stroke="transparent" d="M663.5,-283C663.5,-283 676.5,-283 676.5,-283 682.5,-283 688.5,-289 688.5,-295 688.5,-295 688.5,-313 688.5,-313 688.5,-319 682.5,-325 676.5,-325 676.5,-325 663.5,-325 663.5,-325 657.5,-325 651.5,-319 651.5,-313 651.5,-313 651.5,-295 651.5,-295 651.5,-289 657.5,-283 663.5,-283"/>
<path fill="none" stroke="black" d="M663.5,-283C663.5,-283 676.5,-283 676.5,-283 682.5,-283 688.5,-289 688.5,-295 688.5,-295 688.5,-313 688.5,-313 688.5,-319 682.5,-325 676.5,-325 676.5,-325 663.5,-325 663.5,-325 657.5,-325 651.5,-319 651.5,-313 651.5,-313 651.5,-295 651.5,-295 651.5,-289 657.5,-283 663.5,-283"/>
<text text-anchor="start" x="657.5" y="-307.8" font-family="Times,serif" font-size="14.00">nfkb</text>
<text text-anchor="start" x="666.5" y="-292.8" font-family="Times,serif" font-size="14.00">0</text>
<path fill="#6f6f6f" stroke="transparent" d="M700.5,-283C700.5,-283 710.5,-283 710.5,-283 715.5,-283 720.5,-288 720.5,-293 720.5,-293 720.5,-315 720.5,-315 720.5,-320 715.5,-325 710.5,-325 710.5,-325 700.5,-325 700.5,-325 695.5,-325 690.5,-320 690.5,-315 690.5,-315 690.5,-293 690.5,-293 690.5,-288 695.5,-283 700.5,-283"/>
<path fill="none" stroke="black" d="M700.5,-283C700.5,-283 710.5,-283 710.5,-283 715.5,-283 720.5,-288 720.5,-293 720.5,-293 720.5,-315 720.5,-315 720.5,-320 715.5,-325 710.5,-325 710.5,-325 700.5,-325 700.5,-325 695.5,-325 690.5,-320 690.5,-315 690.5,-315 690.5,-293 690.5,-293 690.5,-288 695.5,-283 700.5,-283"/>
<text text-anchor="start" x="696.5" y="-307.8" font-family="Times,serif" font-size="14.00">nik</text>
<text text-anchor="start" x="702" y="-292.8" font-family="Times,serif" font-size="14.00">0</text>
<path fill="#6f6f6f" stroke="transparent" d="M733.5,-283C733.5,-283 744.5,-283 744.5,-283 750,-283 755.5,-288.5 755.5,-294 755.5,-294 755.5,-314 755.5,-314 755.5,-319.5 750,-325 744.5,-325 744.5,-325 733.5,-325 733.5,-325 728,-325 722.5,-319.5 722.5,-314 722.5,-314 722.5,-294 722.5,-294 722.5,-288.5 728,-283 733.5,-283"/>
<path fill="none" stroke="black" d="M733.5,-283C733.5,-283 744.5,-283 744.5,-283 750,-283 755.5,-288.5 755.5,-294 755.5,-294 755.5,-314 755.5,-314 755.5,-319.5 750,-325 744.5,-325 744.5,-325 733.5,-325 733.5,-325 728,-325 722.5,-319.5 722.5,-314 722.5,-314 722.5,-294 722.5,-294 722.5,-288.5 728,-283 733.5,-283"/>
<text text-anchor="start" x="728.5" y="-307.8" font-family="Times,serif" font-size="14.00">p38</text>
<text text-anchor="start" x="735.5" y="-292.8" font-family="Times,serif" font-size="14.00">0</text>
<path fill="#6f6f6f" stroke="transparent" d="M766.17,-283C766.17,-283 774.83,-283 774.83,-283 779.17,-283 783.5,-287.33 783.5,-291.67 783.5,-291.67 783.5,-316.33 783.5,-316.33 783.5,-320.67 779.17,-325 774.83,-325 774.83,-325 766.17,-325 766.17,-325 761.83,-325 757.5,-320.67 757.5,-316.33 757.5,-316.33 757.5,-291.67 757.5,-291.67 757.5,-287.33 761.83,-283 766.17,-283"/>
<path fill="none" stroke="black" d="M766.17,-283C766.17,-283 774.83,-283 774.83,-283 779.17,-283 783.5,-287.33 783.5,-291.67 783.5,-291.67 783.5,-316.33 783.5,-316.33 783.5,-320.67 779.17,-325 774.83,-325 774.83,-325 766.17,-325 766.17,-325 761.83,-325 757.5,-320.67 757.5,-316.33 757.5,-316.33 757.5,-291.67 757.5,-291.67 757.5,-287.33 761.83,-283 766.17,-283"/>
<text text-anchor="start" x="763.5" y="-307.8" font-family="Times,serif" font-size="14.00">ph</text>
<text text-anchor="start" x="767" y="-292.8" font-family="Times,serif" font-size="14.00">0</text>
<path fill="#6f6f6f" stroke="transparent" d="M797.5,-283C797.5,-283 810.5,-283 810.5,-283 816.5,-283 822.5,-289 822.5,-295 822.5,-295 822.5,-313 822.5,-313 822.5,-319 816.5,-325 810.5,-325 810.5,-325 797.5,-325 797.5,-325 791.5,-325 785.5,-319 785.5,-313 785.5,-313 785.5,-295 785.5,-295 785.5,-289 791.5,-283 797.5,-283"/>
<path fill="none" stroke="black" d="M797.5,-283C797.5,-283 810.5,-283 810.5,-283 816.5,-283 822.5,-289 822.5,-295 822.5,-295 822.5,-313 822.5,-313 822.5,-319 816.5,-325 810.5,-325 810.5,-325 797.5,-325 797.5,-325 791.5,-325 785.5,-319 785.5,-313 785.5,-313 785.5,-295 785.5,-295 785.5,-289 791.5,-283 797.5,-283"/>
<text text-anchor="start" x="791.5" y="-307.8" font-family="Times,serif" font-size="14.00">pi3k</text>
<text text-anchor="start" x="800.5" y="-292.8" font-family="Times,serif" font-size="14.00">0</text>
<path fill="#6f6f6f" stroke="transparent" d="M835.83,-283C835.83,-283 847.17,-283 847.17,-283 852.83,-283 858.5,-288.67 858.5,-294.33 858.5,-294.33 858.5,-313.67 858.5,-313.67 858.5,-319.33 852.83,-325 847.17,-325 847.17,-325 835.83,-325 835.83,-325 830.17,-325 824.5,-319.33 824.5,-313.67 824.5,-313.67 824.5,-294.33 824.5,-294.33 824.5,-288.67 830.17,-283 835.83,-283"/>
<path fill="none" stroke="black" d="M835.83,-283C835.83,-283 847.17,-283 847.17,-283 852.83,-283 858.5,-288.67 858.5,-294.33 858.5,-294.33 858.5,-313.67 858.5,-313.67 858.5,-319.33 852.83,-325 847.17,-325 847.17,-325 835.83,-325 835.83,-325 830.17,-325 824.5,-319.33 824.5,-313.67 824.5,-313.67 824.5,-294.33 824.5,-294.33 824.5,-288.67 830.17,-283 835.83,-283"/>
<text text-anchor="start" x="830.5" y="-307.8" font-family="Times,serif" font-size="14.00">raf1</text>
<text text-anchor="start" x="838" y="-292.8" font-family="Times,serif" font-size="14.00">0</text>
<path fill="#6f6f6f" stroke="transparent" d="M869.83,-283C869.83,-283 879.17,-283 879.17,-283 883.83,-283 888.5,-287.67 888.5,-292.33 888.5,-292.33 888.5,-315.67 888.5,-315.67 888.5,-320.33 883.83,-325 879.17,-325 879.17,-325 869.83,-325 869.83,-325 865.17,-325 860.5,-320.33 860.5,-315.67 860.5,-315.67 860.5,-292.33 860.5,-292.33 860.5,-287.67 865.17,-283 869.83,-283"/>
<path fill="none" stroke="black" d="M869.83,-283C869.83,-283 879.17,-283 879.17,-283 883.83,-283 888.5,-287.67 888.5,-292.33 888.5,-292.33 888.5,-315.67 888.5,-315.67 888.5,-320.33 883.83,-325 879.17,-325 879.17,-325 869.83,-325 869.83,-325 865.17,-325 860.5,-320.33 860.5,-315.67 860.5,-315.67 860.5,-292.33 860.5,-292.33 860.5,-287.67 865.17,-283 869.83,-283"/>
<text text-anchor="start" x="866.5" y="-307.8" font-family="Times,serif" font-size="14.00">ras</text>
<text text-anchor="start" x="871" y="-292.8" font-family="Times,serif" font-size="14.00">0</text>
<path fill="#6f6f6f" stroke="transparent" d="M900.5,-283C900.5,-283 910.5,-283 910.5,-283 915.5,-283 920.5,-288 920.5,-293 920.5,-293 920.5,-315 920.5,-315 920.5,-320 915.5,-325 910.5,-325 910.5,-325 900.5,-325 900.5,-325 895.5,-325 890.5,-320 890.5,-315 890.5,-315 890.5,-293 890.5,-293 890.5,-288 895.5,-283 900.5,-283"/>
<path fill="none" stroke="black" d="M900.5,-283C900.5,-283 910.5,-283 910.5,-283 915.5,-283 920.5,-288 920.5,-293 920.5,-293 920.5,-315 920.5,-315 920.5,-320 915.5,-325 910.5,-325 910.5,-325 900.5,-325 900.5,-325 895.5,-325 890.5,-320 890.5,-315 890.5,-315 890.5,-293 890.5,-293 890.5,-288 895.5,-283 900.5,-283"/>
<text text-anchor="start" x="896.5" y="-307.8" font-family="Times,serif" font-size="14.00">sos</text>
<text text-anchor="start" x="902" y="-292.8" font-family="Times,serif" font-size="14.00">0</text>
<path fill="#6f6f6f" stroke="transparent" d="M933.83,-283C933.83,-283 945.17,-283 945.17,-283 950.83,-283 956.5,-288.67 956.5,-294.33 956.5,-294.33 956.5,-313.67 956.5,-313.67 956.5,-319.33 950.83,-325 945.17,-325 945.17,-325 933.83,-325 933.83,-325 928.17,-325 922.5,-319.33 922.5,-313.67 922.5,-313.67 922.5,-294.33 922.5,-294.33 922.5,-288.67 928.17,-283 933.83,-283"/>
<path fill="none" stroke="black" d="M933.83,-283C933.83,-283 945.17,-283 945.17,-283 950.83,-283 956.5,-288.67 956.5,-294.33 956.5,-294.33 956.5,-313.67 956.5,-313.67 956.5,-319.33 950.83,-325 945.17,-325 945.17,-325 933.83,-325 933.83,-325 928.17,-325 922.5,-319.33 922.5,-313.67 922.5,-313.67 922.5,-294.33 922.5,-294.33 922.5,-288.67 928.17,-283 933.83,-283"/>
<text text-anchor="start" x="928.5" y="-307.8" font-family="Times,serif" font-size="14.00">tnfa</text>
<text text-anchor="start" x="936" y="-292.8" font-family="Times,serif" font-size="14.00">0</text>
<path fill="#6f6f6f" stroke="transparent" d="M969.17,-283C969.17,-283 979.83,-283 979.83,-283 985.17,-283 990.5,-288.33 990.5,-293.67 990.5,-293.67 990.5,-314.33 990.5,-314.33 990.5,-319.67 985.17,-325 979.83,-325 979.83,-325 969.17,-325 969.17,-325 963.83,-325 958.5,-319.67 958.5,-314.33 958.5,-314.33 958.5,-293.67 958.5,-293.67 958.5,-288.33 963.83,-283 969.17,-283"/>
<path fill="none" stroke="black" d="M969.17,-283C969.17,-283 979.83,-283 979.83,-283 985.17,-283 990.5,-288.33 990.5,-293.67 990.5,-293.67 990.5,-314.33 990.5,-314.33 990.5,-319.67 985.17,-325 979.83,-325 979.83,-325 969.17,-325 969.17,-325 963.83,-325 958.5,-319.67 958.5,-314.33 958.5,-314.33 958.5,-293.67 958.5,-293.67 958.5,-288.33 963.83,-283 969.17,-283"/>
<text text-anchor="start" x="964.5" y="-307.8" font-family="Times,serif" font-size="14.00">tnfr</text>
<text text-anchor="start" x="971" y="-292.8" font-family="Times,serif" font-size="14.00">0</text>
<path fill="#6f6f6f" stroke="transparent" d="M1004.5,-283C1004.5,-283 1018.5,-283 1018.5,-283 1024.5,-283 1030.5,-289 1030.5,-295 1030.5,-295 1030.5,-313 1030.5,-313 1030.5,-319 1024.5,-325 1018.5,-325 1018.5,-325 1004.5,-325 1004.5,-325 998.5,-325 992.5,-319 992.5,-313 992.5,-313 992.5,-295 992.5,-295 992.5,-289 998.5,-283 1004.5,-283"/>
<path fill="none" stroke="black" d="M1004.5,-283C1004.5,-283 1018.5,-283 1018.5,-283 1024.5,-283 1030.5,-289 1030.5,-295 1030.5,-295 1030.5,-313 1030.5,-313 1030.5,-319 1024.5,-325 1018.5,-325 1018.5,-325 1004.5,-325 1004.5,-325 998.5,-325 992.5,-319 992.5,-313 992.5,-313 992.5,-295 992.5,-295 992.5,-289 998.5,-283 1004.5,-283"/>
<text text-anchor="start" x="998.5" y="-307.8" font-family="Times,serif" font-size="14.00">traf2</text>
<text text-anchor="start" x="1008" y="-292.8" font-family="Times,serif" font-size="14.00">0</text>
<polygon fill="none" stroke="black" points="8,-280 8,-328 1033,-328 1033,-280 8,-280"/>
</g>
<!-- 0000000011000000010000000000 -->
<g id="node2" class="node">
<title>0000000011000000010000000000</title>
<polygon fill="transparent" stroke="transparent" points="1041,-240 0,-240 0,-184 1041,-184 1041,-240"/>
<path fill="#6f6f6f" stroke="transparent" d="M21.17,-191C21.17,-191 30.83,-191 30.83,-191 35.67,-191 40.5,-195.83 40.5,-200.67 40.5,-200.67 40.5,-223.33 40.5,-223.33 40.5,-228.17 35.67,-233 30.83,-233 30.83,-233 21.17,-233 21.17,-233 16.33,-233 11.5,-228.17 11.5,-223.33 11.5,-223.33 11.5,-200.67 11.5,-200.67 11.5,-195.83 16.33,-191 21.17,-191"/>
<path fill="none" stroke="black" d="M21.17,-191C21.17,-191 30.83,-191 30.83,-191 35.67,-191 40.5,-195.83 40.5,-200.67 40.5,-200.67 40.5,-223.33 40.5,-223.33 40.5,-228.17 35.67,-233 30.83,-233 30.83,-233 21.17,-233 21.17,-233 16.33,-233 11.5,-228.17 11.5,-223.33 11.5,-223.33 11.5,-200.67 11.5,-200.67 11.5,-195.83 16.33,-191 21.17,-191"/>
<text text-anchor="start" x="17.5" y="-215.8" font-family="Times,serif" font-size="14.00">akt</text>
<text text-anchor="start" x="22.5" y="-200.8" font-family="Times,serif" font-size="14.00">0</text>
<path fill="#6f6f6f" stroke="transparent" d="M53.17,-191C53.17,-191 63.83,-191 63.83,-191 69.17,-191 74.5,-196.33 74.5,-201.67 74.5,-201.67 74.5,-222.33 74.5,-222.33 74.5,-227.67 69.17,-233 63.83,-233 63.83,-233 53.17,-233 53.17,-233 47.83,-233 42.5,-227.67 42.5,-222.33 42.5,-222.33 42.5,-201.67 42.5,-201.67 42.5,-196.33 47.83,-191 53.17,-191"/>
<path fill="none" stroke="black" d="M53.17,-191C53.17,-191 63.83,-191 63.83,-191 69.17,-191 74.5,-196.33 74.5,-201.67 74.5,-201.67 74.5,-222.33 74.5,-222.33 74.5,-227.67 69.17,-233 63.83,-233 63.83,-233 53.17,-233 53.17,-233 47.83,-233 42.5,-227.67 42.5,-222.33 42.5,-222.33 42.5,-201.67 42.5,-201.67 42.5,-196.33 47.83,-191 53.17,-191"/>
<text text-anchor="start" x="48.5" y="-215.8" font-family="Times,serif" font-size="14.00">ap1</text>
<text text-anchor="start" x="55" y="-200.8" font-family="Times,serif" font-size="14.00">0</text>
<path fill="#6f6f6f" stroke="transparent" d="M88.5,-191C88.5,-191 101.5,-191 101.5,-191 107.5,-191 113.5,-197 113.5,-203 113.5,-203 113.5,-221 113.5,-221 113.5,-227 107.5,-233 101.5,-233 101.5,-233 88.5,-233 88.5,-233 82.5,-233 76.5,-227 76.5,-221 76.5,-221 76.5,-203 76.5,-203 76.5,-197 82.5,-191 88.5,-191"/>
<path fill="none" stroke="black" d="M88.5,-191C88.5,-191 101.5,-191 101.5,-191 107.5,-191 113.5,-197 113.5,-203 113.5,-203 113.5,-221 113.5,-221 113.5,-227 107.5,-233 101.5,-233 101.5,-233 88.5,-233 88.5,-233 82.5,-233 76.5,-227 76.5,-221 76.5,-221 76.5,-203 76.5,-203 76.5,-197 82.5,-191 88.5,-191"/>
<text text-anchor="start" x="82.5" y="-215.8" font-family="Times,serif" font-size="14.00">ask1</text>
<text text-anchor="start" x="91.5" y="-200.8" font-family="Times,serif" font-size="14.00">0</text>
<path fill="#6f6f6f" stroke="transparent" d="M127.5,-191C127.5,-191 139.5,-191 139.5,-191 145.5,-191 151.5,-197 151.5,-203 151.5,-203 151.5,-221 151.5,-221 151.5,-227 145.5,-233 139.5,-233 139.5,-233 127.5,-233 127.5,-233 121.5,-233 115.5,-227 115.5,-221 115.5,-221 115.5,-203 115.5,-203 115.5,-197 121.5,-191 127.5,-191"/>
<path fill="none" stroke="black" d="M127.5,-191C127.5,-191 139.5,-191 139.5,-191 145.5,-191 151.5,-197 151.5,-203 151.5,-203 151.5,-221 151.5,-221 151.5,-227 145.5,-233 139.5,-233 139.5,-233 127.5,-233 127.5,-233 121.5,-233 115.5,-227 115.5,-221 115.5,-221 115.5,-203 115.5,-203 115.5,-197 121.5,-191 127.5,-191"/>
<text text-anchor="start" x="121.5" y="-215.8" font-family="Times,serif" font-size="14.00">cjun</text>
<text text-anchor="start" x="130" y="-200.8" font-family="Times,serif" font-size="14.00">0</text>
<path fill="#6f6f6f" stroke="transparent" d="M163.5,-191C163.5,-191 173.5,-191 173.5,-191 178.5,-191 183.5,-196 183.5,-201 183.5,-201 183.5,-223 183.5,-223 183.5,-228 178.5,-233 173.5,-233 173.5,-233 163.5,-233 163.5,-233 158.5,-233 153.5,-228 153.5,-223 153.5,-223 153.5,-201 153.5,-201 153.5,-196 158.5,-191 163.5,-191"/>
<path fill="none" stroke="black" d="M163.5,-191C163.5,-191 173.5,-191 173.5,-191 178.5,-191 183.5,-196 183.5,-201 183.5,-201 183.5,-223 183.5,-223 183.5,-228 178.5,-233 173.5,-233 173.5,-233 163.5,-233 163.5,-233 158.5,-233 153.5,-228 153.5,-223 153.5,-223 153.5,-201 153.5,-201 153.5,-196 158.5,-191 163.5,-191"/>
<text text-anchor="start" x="159.5" y="-215.8" font-family="Times,serif" font-size="14.00">egf</text>
<text text-anchor="start" x="165" y="-200.8" font-family="Times,serif" font-size="14.00">0</text>
<path fill="#6f6f6f" stroke="transparent" d="M196.83,-191C196.83,-191 208.17,-191 208.17,-191 213.83,-191 219.5,-196.67 219.5,-202.33 219.5,-202.33 219.5,-221.67 219.5,-221.67 219.5,-227.33 213.83,-233 208.17,-233 208.17,-233 196.83,-233 196.83,-233 191.17,-233 185.5,-227.33 185.5,-221.67 185.5,-221.67 185.5,-202.33 185.5,-202.33 185.5,-196.67 191.17,-191 196.83,-191"/>
<path fill="none" stroke="black" d="M196.83,-191C196.83,-191 208.17,-191 208.17,-191 213.83,-191 219.5,-196.67 219.5,-202.33 219.5,-202.33 219.5,-221.67 219.5,-221.67 219.5,-227.33 213.83,-233 208.17,-233 208.17,-233 196.83,-233 196.83,-233 191.17,-233 185.5,-227.33 185.5,-221.67 185.5,-221.67 185.5,-202.33 185.5,-202.33 185.5,-196.67 191.17,-191 196.83,-191"/>
<text text-anchor="start" x="191.5" y="-215.8" font-family="Times,serif" font-size="14.00">egfr</text>
<text text-anchor="start" x="199" y="-200.8" font-family="Times,serif" font-size="14.00">0</text>
<path fill="#6f6f6f" stroke="transparent" d="M231.5,-191C231.5,-191 241.5,-191 241.5,-191 246.5,-191 251.5,-196 251.5,-201 251.5,-201 251.5,-223 251.5,-223 251.5,-228 246.5,-233 241.5,-233 241.5,-233 231.5,-233 231.5,-233 226.5,-233 221.5,-228 221.5,-223 221.5,-223 221.5,-201 221.5,-201 221.5,-196 226.5,-191 231.5,-191"/>
<path fill="none" stroke="black" d="M231.5,-191C231.5,-191 241.5,-191 241.5,-191 246.5,-191 251.5,-196 251.5,-201 251.5,-201 251.5,-223 251.5,-223 251.5,-228 246.5,-233 241.5,-233 241.5,-233 231.5,-233 231.5,-233 226.5,-233 221.5,-228 221.5,-223 221.5,-223 221.5,-201 221.5,-201 221.5,-196 226.5,-191 231.5,-191"/>
<text text-anchor="start" x="227.5" y="-215.8" font-family="Times,serif" font-size="14.00">erk</text>
<text text-anchor="start" x="233" y="-200.8" font-family="Times,serif" font-size="14.00">0</text>
<path fill="#6f6f6f" stroke="transparent" d="M261.83,-191C261.83,-191 270.17,-191 270.17,-191 274.33,-191 278.5,-195.17 278.5,-199.33 278.5,-199.33 278.5,-224.67 278.5,-224.67 278.5,-228.83 274.33,-233 270.17,-233 270.17,-233 261.83,-233 261.83,-233 257.67,-233 253.5,-228.83 253.5,-224.67 253.5,-224.67 253.5,-199.33 253.5,-199.33 253.5,-195.17 257.67,-191 261.83,-191"/>
<path fill="none" stroke="black" d="M261.83,-191C261.83,-191 270.17,-191 270.17,-191 274.33,-191 278.5,-195.17 278.5,-199.33 278.5,-199.33 278.5,-224.67 278.5,-224.67 278.5,-228.83 274.33,-233 270.17,-233 270.17,-233 261.83,-233 261.83,-233 257.67,-233 253.5,-228.83 253.5,-224.67 253.5,-224.67 253.5,-199.33 253.5,-199.33 253.5,-195.17 257.67,-191 261.83,-191"/>
<text text-anchor="start" x="259.5" y="-215.8" font-family="Times,serif" font-size="14.00">ex</text>
<text text-anchor="start" x="262.5" y="-200.8" font-family="Times,serif" font-size="14.00">0</text>
<path fill="#b2df8a" stroke="transparent" d="M292.5,-191C292.5,-191 306.5,-191 306.5,-191 312.5,-191 318.5,-197 318.5,-203 318.5,-203 318.5,-221 318.5,-221 318.5,-227 312.5,-233 306.5,-233 306.5,-233 292.5,-233 292.5,-233 286.5,-233 280.5,-227 280.5,-221 280.5,-221 280.5,-203 280.5,-203 280.5,-197 286.5,-191 292.5,-191"/>
<path fill="none" stroke="black" d="M292.5,-191C292.5,-191 306.5,-191 306.5,-191 312.5,-191 318.5,-197 318.5,-203 318.5,-203 318.5,-221 318.5,-221 318.5,-227 312.5,-233 306.5,-233 306.5,-233 292.5,-233 292.5,-233 286.5,-233 280.5,-227 280.5,-221 280.5,-221 280.5,-203 280.5,-203 280.5,-197 286.5,-191 292.5,-191"/>
<text text-anchor="start" x="286.5" y="-215.8" font-family="Times,serif" font-size="14.00">gsk3</text>
<text text-anchor="start" x="296" y="-200.8" font-family="Times,serif" font-size="14.00">1</text>
<path fill="#b2df8a" stroke="transparent" d="M330.5,-191C330.5,-191 340.5,-191 340.5,-191 345.5,-191 350.5,-196 350.5,-201 350.5,-201 350.5,-223 350.5,-223 350.5,-228 345.5,-233 340.5,-233 340.5,-233 330.5,-233 330.5,-233 325.5,-233 320.5,-228 320.5,-223 320.5,-223 320.5,-201 320.5,-201 320.5,-196 325.5,-191 330.5,-191"/>
<path fill="none" stroke="black" d="M330.5,-191C330.5,-191 340.5,-191 340.5,-191 345.5,-191 350.5,-196 350.5,-201 350.5,-201 350.5,-223 350.5,-223 350.5,-228 345.5,-233 340.5,-233 340.5,-233 330.5,-233 330.5,-233 325.5,-233 320.5,-228 320.5,-223 320.5,-223 320.5,-201 320.5,-201 320.5,-196 325.5,-191 330.5,-191"/>
<text text-anchor="start" x="326.5" y="-215.8" font-family="Times,serif" font-size="14.00">ikb</text>
<text text-anchor="start" x="332" y="-200.8" font-family="Times,serif" font-size="14.00">1</text>
<path fill="#6f6f6f" stroke="transparent" d="M362.5,-191C362.5,-191 372.5,-191 372.5,-191 377.5,-191 382.5,-196 382.5,-201 382.5,-201 382.5,-223 382.5,-223 382.5,-228 377.5,-233 372.5,-233 372.5,-233 362.5,-233 362.5,-233 357.5,-233 352.5,-228 352.5,-223 352.5,-223 352.5,-201 352.5,-201 352.5,-196 357.5,-191 362.5,-191"/>
<path fill="none" stroke="black" d="M362.5,-191C362.5,-191 372.5,-191 372.5,-191 377.5,-191 382.5,-196 382.5,-201 382.5,-201 382.5,-223 382.5,-223 382.5,-228 377.5,-233 372.5,-233 372.5,-233 362.5,-233 362.5,-233 357.5,-233 352.5,-228 352.5,-223 352.5,-223 352.5,-201 352.5,-201 352.5,-196 357.5,-191 362.5,-191"/>
<text text-anchor="start" x="358.5" y="-215.8" font-family="Times,serif" font-size="14.00">ikk</text>
<text text-anchor="start" x="364" y="-200.8" font-family="Times,serif" font-size="14.00">0</text>
<path fill="#6f6f6f" stroke="transparent" d="M394.5,-191C394.5,-191 404.5,-191 404.5,-191 409.5,-191 414.5,-196 414.5,-201 414.5,-201 414.5,-223 414.5,-223 414.5,-228 409.5,-233 404.5,-233 404.5,-233 394.5,-233 394.5,-233 389.5,-233 384.5,-228 384.5,-223 384.5,-223 384.5,-201 384.5,-201 384.5,-196 389.5,-191 394.5,-191"/>
<path fill="none" stroke="black" d="M394.5,-191C394.5,-191 404.5,-191 404.5,-191 409.5,-191 414.5,-196 414.5,-201 414.5,-201 414.5,-223 414.5,-223 414.5,-228 409.5,-233 404.5,-233 404.5,-233 394.5,-233 394.5,-233 389.5,-233 384.5,-228 384.5,-223 384.5,-223 384.5,-201 384.5,-201 384.5,-196 389.5,-191 394.5,-191"/>
<text text-anchor="start" x="390.5" y="-215.8" font-family="Times,serif" font-size="14.00">jnk</text>
<text text-anchor="start" x="396" y="-200.8" font-family="Times,serif" font-size="14.00">0</text>
<path fill="#6f6f6f" stroke="transparent" d="M428.5,-191C428.5,-191 454.5,-191 454.5,-191 460.5,-191 466.5,-197 466.5,-203 466.5,-203 466.5,-221 466.5,-221 466.5,-227 460.5,-233 454.5,-233 454.5,-233 428.5,-233 428.5,-233 422.5,-233 416.5,-227 416.5,-221 416.5,-221 416.5,-203 416.5,-203 416.5,-197 422.5,-191 428.5,-191"/>
<path fill="none" stroke="black" d="M428.5,-191C428.5,-191 454.5,-191 454.5,-191 460.5,-191 466.5,-197 466.5,-203 466.5,-203 466.5,-221 466.5,-221 466.5,-227 460.5,-233 454.5,-233 454.5,-233 428.5,-233 428.5,-233 422.5,-233 416.5,-227 416.5,-221 416.5,-221 416.5,-203 416.5,-203 416.5,-197 422.5,-191 428.5,-191"/>
<text text-anchor="start" x="422.5" y="-215.8" font-family="Times,serif" font-size="14.00">map3k</text>
<text text-anchor="start" x="438" y="-200.8" font-family="Times,serif" font-size="14.00">0</text>
<path fill="#6f6f6f" stroke="transparent" d="M480.5,-191C480.5,-191 506.5,-191 506.5,-191 512.5,-191 518.5,-197 518.5,-203 518.5,-203 518.5,-221 518.5,-221 518.5,-227 512.5,-233 506.5,-233 506.5,-233 480.5,-233 480.5,-233 474.5,-233 468.5,-227 468.5,-221 468.5,-221 468.5,-203 468.5,-203 468.5,-197 474.5,-191 480.5,-191"/>
<path fill="none" stroke="black" d="M480.5,-191C480.5,-191 506.5,-191 506.5,-191 512.5,-191 518.5,-197 518.5,-203 518.5,-203 518.5,-221 518.5,-221 518.5,-227 512.5,-233 506.5,-233 506.5,-233 480.5,-233 480.5,-233 474.5,-233 468.5,-227 468.5,-221 468.5,-221 468.5,-203 468.5,-203 468.5,-197 474.5,-191 480.5,-191"/>
<text text-anchor="start" x="474.5" y="-215.8" font-family="Times,serif" font-size="14.00">map3k</text>
<text text-anchor="start" x="490" y="-200.8" font-family="Times,serif" font-size="14.00">0</text>
<path fill="#6f6f6f" stroke="transparent" d="M532.5,-191C532.5,-191 545.5,-191 545.5,-191 551.5,-191 557.5,-197 557.5,-203 557.5,-203 557.5,-221 557.5,-221 557.5,-227 551.5,-233 545.5,-233 545.5,-233 532.5,-233 532.5,-233 526.5,-233 520.5,-227 520.5,-221 520.5,-221 520.5,-203 520.5,-203 520.5,-197 526.5,-191 532.5,-191"/>
<path fill="none" stroke="black" d="M532.5,-191C532.5,-191 545.5,-191 545.5,-191 551.5,-191 557.5,-197 557.5,-203 557.5,-203 557.5,-221 557.5,-221 557.5,-227 551.5,-233 545.5,-233 545.5,-233 532.5,-233 532.5,-233 526.5,-233 520.5,-227 520.5,-221 520.5,-221 520.5,-203 520.5,-203 520.5,-197 526.5,-191 532.5,-191"/>
<text text-anchor="start" x="526.5" y="-215.8" font-family="Times,serif" font-size="14.00">mek</text>
<text text-anchor="start" x="535.5" y="-200.8" font-family="Times,serif" font-size="14.00">0</text>
<path fill="#6f6f6f" stroke="transparent" d="M571.5,-191C571.5,-191 591.5,-191 591.5,-191 597.5,-191 603.5,-197 603.5,-203 603.5,-203 603.5,-221 603.5,-221 603.5,-227 597.5,-233 591.5,-233 591.5,-233 571.5,-233 571.5,-233 565.5,-233 559.5,-227 559.5,-221 559.5,-221 559.5,-203 559.5,-203 559.5,-197 565.5,-191 571.5,-191"/>
<path fill="none" stroke="black" d="M571.5,-191C571.5,-191 591.5,-191 591.5,-191 597.5,-191 603.5,-197 603.5,-203 603.5,-203 603.5,-221 603.5,-221 603.5,-227 597.5,-233 591.5,-233 591.5,-233 571.5,-233 571.5,-233 565.5,-233 559.5,-227 559.5,-221 559.5,-221 559.5,-203 559.5,-203 559.5,-197 565.5,-191 571.5,-191"/>
<text text-anchor="start" x="565.5" y="-215.8" font-family="Times,serif" font-size="14.00">mkk4</text>
<text text-anchor="start" x="578" y="-200.8" font-family="Times,serif" font-size="14.00">0</text>
<path fill="#6f6f6f" stroke="transparent" d="M617.5,-191C617.5,-191 637.5,-191 637.5,-191 643.5,-191 649.5,-197 649.5,-203 649.5,-203 649.5,-221 649.5,-221 649.5,-227 643.5,-233 637.5,-233 637.5,-233 617.5,-233 617.5,-233 611.5,-233 605.5,-227 605.5,-221 605.5,-221 605.5,-203 605.5,-203 605.5,-197 611.5,-191 617.5,-191"/>
<path fill="none" stroke="black" d="M617.5,-191C617.5,-191 637.5,-191 637.5,-191 643.5,-191 649.5,-197 649.5,-203 649.5,-203 649.5,-221 649.5,-221 649.5,-227 643.5,-233 637.5,-233 637.5,-233 617.5,-233 617.5,-233 611.5,-233 605.5,-227 605.5,-221 605.5,-221 605.5,-203 605.5,-203 605.5,-197 611.5,-191 617.5,-191"/>
<text text-anchor="start" x="611.5" y="-215.8" font-family="Times,serif" font-size="14.00">mkk7</text>
<text text-anchor="start" x="624" y="-200.8" font-family="Times,serif" font-size="14.00">0</text>
<path fill="#b2df8a" stroke="transparent" d="M663.5,-191C663.5,-191 676.5,-191 676.5,-191 682.5,-191 688.5,-197 688.5,-203 688.5,-203 688.5,-221 688.5,-221 688.5,-227 682.5,-233 676.5,-233 676.5,-233 663.5,-233 663.5,-233 657.5,-233 651.5,-227 651.5,-221 651.5,-221 651.5,-203 651.5,-203 651.5,-197 657.5,-191 663.5,-191"/>
<path fill="none" stroke="black" d="M663.5,-191C663.5,-191 676.5,-191 676.5,-191 682.5,-191 688.5,-197 688.5,-203 688.5,-203 688.5,-221 688.5,-221 688.5,-227 682.5,-233 676.5,-233 676.5,-233 663.5,-233 663.5,-233 657.5,-233 651.5,-227 651.5,-221 651.5,-221 651.5,-203 651.5,-203 651.5,-197 657.5,-191 663.5,-191"/>
<text text-anchor="start" x="657.5" y="-215.8" font-family="Times,serif" font-size="14.00">nfkb</text>
<text text-anchor="start" x="666.5" y="-200.8" font-family="Times,serif" font-size="14.00">1</text>
<path fill="#6f6f6f" stroke="transparent" d="M700.5,-191C700.5,-191 710.5,-191 710.5,-191 715.5,-191 720.5,-196 720.5,-201 720.5,-201 720.5,-223 720.5,-223 720.5,-228 715.5,-233 710.5,-233 710.5,-233 700.5,-233 700.5,-233 695.5,-233 690.5,-228 690.5,-223 690.5,-223 690.5,-201 690.5,-201 690.5,-196 695.5,-191 700.5,-191"/>
<path fill="none" stroke="black" d="M700.5,-191C700.5,-191 710.5,-191 710.5,-191 715.5,-191 720.5,-196 720.5,-201 720.5,-201 720.5,-223 720.5,-223 720.5,-228 715.5,-233 710.5,-233 710.5,-233 700.5,-233 700.5,-233 695.5,-233 690.5,-228 690.5,-223 690.5,-223 690.5,-201 690.5,-201 690.5,-196 695.5,-191 700.5,-191"/>
<text text-anchor="start" x="696.5" y="-215.8" font-family="Times,serif" font-size="14.00">nik</text>
<text text-anchor="start" x="702" y="-200.8" font-family="Times,serif" font-size="14.00">0</text>
<path fill="#6f6f6f" stroke="transparent" d="M733.5,-191C733.5,-191 744.5,-191 744.5,-191 750,-191 755.5,-196.5 755.5,-202 755.5,-202 755.5,-222 755.5,-222 755.5,-227.5 750,-233 744.5,-233 744.5,-233 733.5,-233 733.5,-233 728,-233 722.5,-227.5 722.5,-222 722.5,-222 722.5,-202 722.5,-202 722.5,-196.5 728,-191 733.5,-191"/>
<path fill="none" stroke="black" d="M733.5,-191C733.5,-191 744.5,-191 744.5,-191 750,-191 755.5,-196.5 755.5,-202 755.5,-202 755.5,-222 755.5,-222 755.5,-227.5 750,-233 744.5,-233 744.5,-233 733.5,-233 733.5,-233 728,-233 722.5,-227.5 722.5,-222 722.5,-222 722.5,-202 722.5,-202 722.5,-196.5 728,-191 733.5,-191"/>
<text text-anchor="start" x="728.5" y="-215.8" font-family="Times,serif" font-size="14.00">p38</text>
<text text-anchor="start" x="735.5" y="-200.8" font-family="Times,serif" font-size="14.00">0</text>
<path fill="#6f6f6f" stroke="transparent" d="M766.17,-191C766.17,-191 774.83,-191 774.83,-191 779.17,-191 783.5,-195.33 783.5,-199.67 783.5,-199.67 783.5,-224.33 783.5,-224.33 783.5,-228.67 779.17,-233 774.83,-233 774.83,-233 766.17,-233 766.17,-233 761.83,-233 757.5,-228.67 757.5,-224.33 757.5,-224.33 757.5,-199.67 757.5,-199.67 757.5,-195.33 761.83,-191 766.17,-191"/>
<path fill="none" stroke="black" d="M766.17,-191C766.17,-191 774.83,-191 774.83,-191 779.17,-191 783.5,-195.33 783.5,-199.67 783.5,-199.67 783.5,-224.33 783.5,-224.33 783.5,-228.67 779.17,-233 774.83,-233 774.83,-233 766.17,-233 766.17,-233 761.83,-233 757.5,-228.67 757.5,-224.33 757.5,-224.33 757.5,-199.67 757.5,-199.67 757.5,-195.33 761.83,-191 766.17,-191"/>
<text text-anchor="start" x="763.5" y="-215.8" font-family="Times,serif" font-size="14.00">ph</text>
<text text-anchor="start" x="767" y="-200.8" font-family="Times,serif" font-size="14.00">0</text>
<path fill="#6f6f6f" stroke="transparent" d="M797.5,-191C797.5,-191 810.5,-191 810.5,-191 816.5,-191 822.5,-197 822.5,-203 822.5,-203 822.5,-221 822.5,-221 822.5,-227 816.5,-233 810.5,-233 810.5,-233 797.5,-233 797.5,-233 791.5,-233 785.5,-227 785.5,-221 785.5,-221 785.5,-203 785.5,-203 785.5,-197 791.5,-191 797.5,-191"/>
<path fill="none" stroke="black" d="M797.5,-191C797.5,-191 810.5,-191 810.5,-191 816.5,-191 822.5,-197 822.5,-203 822.5,-203 822.5,-221 822.5,-221 822.5,-227 816.5,-233 810.5,-233 810.5,-233 797.5,-233 797.5,-233 791.5,-233 785.5,-227 785.5,-221 785.5,-221 785.5,-203 785.5,-203 785.5,-197 791.5,-191 797.5,-191"/>
<text text-anchor="start" x="791.5" y="-215.8" font-family="Times,serif" font-size="14.00">pi3k</text>
<text text-anchor="start" x="800.5" y="-200.8" font-family="Times,serif" font-size="14.00">0</text>
<path fill="#6f6f6f" stroke="transparent" d="M835.83,-191C835.83,-191 847.17,-191 847.17,-191 852.83,-191 858.5,-196.67 858.5,-202.33 858.5,-202.33 858.5,-221.67 858.5,-221.67 858.5,-227.33 852.83,-233 847.17,-233 847.17,-233 835.83,-233 835.83,-233 830.17,-233 824.5,-227.33 824.5,-221.67 824.5,-221.67 824.5,-202.33 824.5,-202.33 824.5,-196.67 830.17,-191 835.83,-191"/>
<path fill="none" stroke="black" d="M835.83,-191C835.83,-191 847.17,-191 847.17,-191 852.83,-191 858.5,-196.67 858.5,-202.33 858.5,-202.33 858.5,-221.67 858.5,-221.67 858.5,-227.33 852.83,-233 847.17,-233 847.17,-233 835.83,-233 835.83,-233 830.17,-233 824.5,-227.33 824.5,-221.67 824.5,-221.67 824.5,-202.33 824.5,-202.33 824.5,-196.67 830.17,-191 835.83,-191"/>
<text text-anchor="start" x="830.5" y="-215.8" font-family="Times,serif" font-size="14.00">raf1</text>
<text text-anchor="start" x="838" y="-200.8" font-family="Times,serif" font-size="14.00">0</text>
<path fill="#6f6f6f" stroke="transparent" d="M869.83,-191C869.83,-191 879.17,-191 879.17,-191 883.83,-191 888.5,-195.67 888.5,-200.33 888.5,-200.33 888.5,-223.67 888.5,-223.67 888.5,-228.33 883.83,-233 879.17,-233 879.17,-233 869.83,-233 869.83,-233 865.17,-233 860.5,-228.33 860.5,-223.67 860.5,-223.67 860.5,-200.33 860.5,-200.33 860.5,-195.67 865.17,-191 869.83,-191"/>
<path fill="none" stroke="black" d="M869.83,-191C869.83,-191 879.17,-191 879.17,-191 883.83,-191 888.5,-195.67 888.5,-200.33 888.5,-200.33 888.5,-223.67 888.5,-223.67 888.5,-228.33 883.83,-233 879.17,-233 879.17,-233 869.83,-233 869.83,-233 865.17,-233 860.5,-228.33 860.5,-223.67 860.5,-223.67 860.5,-200.33 860.5,-200.33 860.5,-195.67 865.17,-191 869.83,-191"/>
<text text-anchor="start" x="866.5" y="-215.8" font-family="Times,serif" font-size="14.00">ras</text>
<text text-anchor="start" x="871" y="-200.8" font-family="Times,serif" font-size="14.00">0</text>
<path fill="#6f6f6f" stroke="transparent" d="M900.5,-191C900.5,-191 910.5,-191 910.5,-191 915.5,-191 920.5,-196 920.5,-201 920.5,-201 920.5,-223 920.5,-223 920.5,-228 915.5,-233 910.5,-233 910.5,-233 900.5,-233 900.5,-233 895.5,-233 890.5,-228 890.5,-223 890.5,-223 890.5,-201 890.5,-201 890.5,-196 895.5,-191 900.5,-191"/>
<path fill="none" stroke="black" d="M900.5,-191C900.5,-191 910.5,-191 910.5,-191 915.5,-191 920.5,-196 920.5,-201 920.5,-201 920.5,-223 920.5,-223 920.5,-228 915.5,-233 910.5,-233 910.5,-233 900.5,-233 900.5,-233 895.5,-233 890.5,-228 890.5,-223 890.5,-223 890.5,-201 890.5,-201 890.5,-196 895.5,-191 900.5,-191"/>
<text text-anchor="start" x="896.5" y="-215.8" font-family="Times,serif" font-size="14.00">sos</text>
<text text-anchor="start" x="902" y="-200.8" font-family="Times,serif" font-size="14.00">0</text>
<path fill="#6f6f6f" stroke="transparent" d="M933.83,-191C933.83,-191 945.17,-191 945.17,-191 950.83,-191 956.5,-196.67 956.5,-202.33 956.5,-202.33 956.5,-221.67 956.5,-221.67 956.5,-227.33 950.83,-233 945.17,-233 945.17,-233 933.83,-233 933.83,-233 928.17,-233 922.5,-227.33 922.5,-221.67 922.5,-221.67 922.5,-202.33 922.5,-202.33 922.5,-196.67 928.17,-191 933.83,-191"/>
<path fill="none" stroke="black" d="M933.83,-191C933.83,-191 945.17,-191 945.17,-191 950.83,-191 956.5,-196.67 956.5,-202.33 956.5,-202.33 956.5,-221.67 956.5,-221.67 956.5,-227.33 950.83,-233 945.17,-233 945.17,-233 933.83,-233 933.83,-233 928.17,-233 922.5,-227.33 922.5,-221.67 922.5,-221.67 922.5,-202.33 922.5,-202.33 922.5,-196.67 928.17,-191 933.83,-191"/>
<text text-anchor="start" x="928.5" y="-215.8" font-family="Times,serif" font-size="14.00">tnfa</text>
<text text-anchor="start" x="936" y="-200.8" font-family="Times,serif" font-size="14.00">0</text>
<path fill="#6f6f6f" stroke="transparent" d="M969.17,-191C969.17,-191 979.83,-191 979.83,-191 985.17,-191 990.5,-196.33 990.5,-201.67 990.5,-201.67 990.5,-222.33 990.5,-222.33 990.5,-227.67 985.17,-233 979.83,-233 979.83,-233 969.17,-233 969.17,-233 963.83,-233 958.5,-227.67 958.5,-222.33 958.5,-222.33 958.5,-201.67 958.5,-201.67 958.5,-196.33 963.83,-191 969.17,-191"/>
<path fill="none" stroke="black" d="M969.17,-191C969.17,-191 979.83,-191 979.83,-191 985.17,-191 990.5,-196.33 990.5,-201.67 990.5,-201.67 990.5,-222.33 990.5,-222.33 990.5,-227.67 985.17,-233 979.83,-233 979.83,-233 969.17,-233 969.17,-233 963.83,-233 958.5,-227.67 958.5,-222.33 958.5,-222.33 958.5,-201.67 958.5,-201.67 958.5,-196.33 963.83,-191 969.17,-191"/>
<text text-anchor="start" x="964.5" y="-215.8" font-family="Times,serif" font-size="14.00">tnfr</text>
<text text-anchor="start" x="971" y="-200.8" font-family="Times,serif" font-size="14.00">0</text>
<path fill="#6f6f6f" stroke="transparent" d="M1004.5,-191C1004.5,-191 1018.5,-191 1018.5,-191 1024.5,-191 1030.5,-197 1030.5,-203 1030.5,-203 1030.5,-221 1030.5,-221 1030.5,-227 1024.5,-233 1018.5,-233 1018.5,-233 1004.5,-233 1004.5,-233 998.5,-233 992.5,-227 992.5,-221 992.5,-221 992.5,-203 992.5,-203 992.5,-197 998.5,-191 1004.5,-191"/>
<path fill="none" stroke="black" d="M1004.5,-191C1004.5,-191 1018.5,-191 1018.5,-191 1024.5,-191 1030.5,-197 1030.5,-203 1030.5,-203 1030.5,-221 1030.5,-221 1030.5,-227 1024.5,-233 1018.5,-233 1018.5,-233 1004.5,-233 1004.5,-233 998.5,-233 992.5,-227 992.5,-221 992.5,-221 992.5,-203 992.5,-203 992.5,-197 998.5,-191 1004.5,-191"/>
<text text-anchor="start" x="998.5" y="-215.8" font-family="Times,serif" font-size="14.00">traf2</text>
<text text-anchor="start" x="1008" y="-200.8" font-family="Times,serif" font-size="14.00">0</text>
<polygon fill="none" stroke="black" points="8,-188 8,-236 1033,-236 1033,-188 8,-188"/>
</g>
<!-- 0000000000000000000000000000&#45;&gt;0000000011000000010000000000 -->
<g id="edge1" class="edge">
<title>0000000000000000000000000000&#45;&gt;0000000011000000010000000000</title>
<path fill="none" stroke="black" d="M520.5,-276C520.5,-267.97 520.5,-259.03 520.5,-250.47"/>
<polygon fill="black" stroke="black" points="524,-250.29 520.5,-240.29 517,-250.29 524,-250.29"/>
</g>
<!-- 0000000111000000000000000000 -->
<g id="node3" class="node">
<title>0000000111000000000000000000</title>
<polygon fill="transparent" stroke="transparent" points="1041,-148 0,-148 0,-92 1041,-92 1041,-148"/>
<path fill="#6f6f6f" stroke="transparent" d="M21.17,-99C21.17,-99 30.83,-99 30.83,-99 35.67,-99 40.5,-103.83 40.5,-108.67 40.5,-108.67 40.5,-131.33 40.5,-131.33 40.5,-136.17 35.67,-141 30.83,-141 30.83,-141 21.17,-141 21.17,-141 16.33,-141 11.5,-136.17 11.5,-131.33 11.5,-131.33 11.5,-108.67 11.5,-108.67 11.5,-103.83 16.33,-99 21.17,-99"/>
<path fill="none" stroke="black" d="M21.17,-99C21.17,-99 30.83,-99 30.83,-99 35.67,-99 40.5,-103.83 40.5,-108.67 40.5,-108.67 40.5,-131.33 40.5,-131.33 40.5,-136.17 35.67,-141 30.83,-141 30.83,-141 21.17,-141 21.17,-141 16.33,-141 11.5,-136.17 11.5,-131.33 11.5,-131.33 11.5,-108.67 11.5,-108.67 11.5,-103.83 16.33,-99 21.17,-99"/>
<text text-anchor="start" x="17.5" y="-123.8" font-family="Times,serif" font-size="14.00">akt</text>
<text text-anchor="start" x="22.5" y="-108.8" font-family="Times,serif" font-size="14.00">0</text>
<path fill="#6f6f6f" stroke="transparent" d="M53.17,-99C53.17,-99 63.83,-99 63.83,-99 69.17,-99 74.5,-104.33 74.5,-109.67 74.5,-109.67 74.5,-130.33 74.5,-130.33 74.5,-135.67 69.17,-141 63.83,-141 63.83,-141 53.17,-141 53.17,-141 47.83,-141 42.5,-135.67 42.5,-130.33 42.5,-130.33 42.5,-109.67 42.5,-109.67 42.5,-104.33 47.83,-99 53.17,-99"/>
<path fill="none" stroke="black" d="M53.17,-99C53.17,-99 63.83,-99 63.83,-99 69.17,-99 74.5,-104.33 74.5,-109.67 74.5,-109.67 74.5,-130.33 74.5,-130.33 74.5,-135.67 69.17,-141 63.83,-141 63.83,-141 53.17,-141 53.17,-141 47.83,-141 42.5,-135.67 42.5,-130.33 42.5,-130.33 42.5,-109.67 42.5,-109.67 42.5,-104.33 47.83,-99 53.17,-99"/>
<text text-anchor="start" x="48.5" y="-123.8" font-family="Times,serif" font-size="14.00">ap1</text>
<text text-anchor="start" x="55" y="-108.8" font-family="Times,serif" font-size="14.00">0</text>
<path fill="#6f6f6f" stroke="transparent" d="M88.5,-99C88.5,-99 101.5,-99 101.5,-99 107.5,-99 113.5,-105 113.5,-111 113.5,-111 113.5,-129 113.5,-129 113.5,-135 107.5,-141 101.5,-141 101.5,-141 88.5,-141 88.5,-141 82.5,-141 76.5,-135 76.5,-129 76.5,-129 76.5,-111 76.5,-111 76.5,-105 82.5,-99 88.5,-99"/>
<path fill="none" stroke="black" d="M88.5,-99C88.5,-99 101.5,-99 101.5,-99 107.5,-99 113.5,-105 113.5,-111 113.5,-111 113.5,-129 113.5,-129 113.5,-135 107.5,-141 101.5,-141 101.5,-141 88.5,-141 88.5,-141 82.5,-141 76.5,-135 76.5,-129 76.5,-129 76.5,-111 76.5,-111 76.5,-105 82.5,-99 88.5,-99"/>
<text text-anchor="start" x="82.5" y="-123.8" font-family="Times,serif" font-size="14.00">ask1</text>
<text text-anchor="start" x="91.5" y="-108.8" font-family="Times,serif" font-size="14.00">0</text>
<path fill="#6f6f6f" stroke="transparent" d="M127.5,-99C127.5,-99 139.5,-99 139.5,-99 145.5,-99 151.5,-105 151.5,-111 151.5,-111 151.5,-129 151.5,-129 151.5,-135 145.5,-141 139.5,-141 139.5,-141 127.5,-141 127.5,-141 121.5,-141 115.5,-135 115.5,-129 115.5,-129 115.5,-111 115.5,-111 115.5,-105 121.5,-99 127.5,-99"/>
<path fill="none" stroke="black" d="M127.5,-99C127.5,-99 139.5,-99 139.5,-99 145.5,-99 151.5,-105 151.5,-111 151.5,-111 151.5,-129 151.5,-129 151.5,-135 145.5,-141 139.5,-141 139.5,-141 127.5,-141 127.5,-141 121.5,-141 115.5,-135 115.5,-129 115.5,-129 115.5,-111 115.5,-111 115.5,-105 121.5,-99 127.5,-99"/>
<text text-anchor="start" x="121.5" y="-123.8" font-family="Times,serif" font-size="14.00">cjun</text>
<text text-anchor="start" x="130" y="-108.8" font-family="Times,serif" font-size="14.00">0</text>
<path fill="#6f6f6f" stroke="transparent" d="M163.5,-99C163.5,-99 173.5,-99 173.5,-99 178.5,-99 183.5,-104 183.5,-109 183.5,-109 183.5,-131 183.5,-131 183.5,-136 178.5,-141 173.5,-141 173.5,-141 163.5,-141 163.5,-141 158.5,-141 153.5,-136 153.5,-131 153.5,-131 153.5,-109 153.5,-109 153.5,-104 158.5,-99 163.5,-99"/>
<path fill="none" stroke="black" d="M163.5,-99C163.5,-99 173.5,-99 173.5,-99 178.5,-99 183.5,-104 183.5,-109 183.5,-109 183.5,-131 183.5,-131 183.5,-136 178.5,-141 173.5,-141 173.5,-141 163.5,-141 163.5,-141 158.5,-141 153.5,-136 153.5,-131 153.5,-131 153.5,-109 153.5,-109 153.5,-104 158.5,-99 163.5,-99"/>
<text text-anchor="start" x="159.5" y="-123.8" font-family="Times,serif" font-size="14.00">egf</text>
<text text-anchor="start" x="165" y="-108.8" font-family="Times,serif" font-size="14.00">0</text>
<path fill="#6f6f6f" stroke="transparent" d="M196.83,-99C196.83,-99 208.17,-99 208.17,-99 213.83,-99 219.5,-104.67 219.5,-110.33 219.5,-110.33 219.5,-129.67 219.5,-129.67 219.5,-135.33 213.83,-141 208.17,-141 208.17,-141 196.83,-141 196.83,-141 191.17,-141 185.5,-135.33 185.5,-129.67 185.5,-129.67 185.5,-110.33 185.5,-110.33 185.5,-104.67 191.17,-99 196.83,-99"/>
<path fill="none" stroke="black" d="M196.83,-99C196.83,-99 208.17,-99 208.17,-99 213.83,-99 219.5,-104.67 219.5,-110.33 219.5,-110.33 219.5,-129.67 219.5,-129.67 219.5,-135.33 213.83,-141 208.17,-141 208.17,-141 196.83,-141 196.83,-141 191.17,-141 185.5,-135.33 185.5,-129.67 185.5,-129.67 185.5,-110.33 185.5,-110.33 185.5,-104.67 191.17,-99 196.83,-99"/>
<text text-anchor="start" x="191.5" y="-123.8" font-family="Times,serif" font-size="14.00">egfr</text>
<text text-anchor="start" x="199" y="-108.8" font-family="Times,serif" font-size="14.00">0</text>
<path fill="#6f6f6f" stroke="transparent" d="M231.5,-99C231.5,-99 241.5,-99 241.5,-99 246.5,-99 251.5,-104 251.5,-109 251.5,-109 251.5,-131 251.5,-131 251.5,-136 246.5,-141 241.5,-141 241.5,-141 231.5,-141 231.5,-141 226.5,-141 221.5,-136 221.5,-131 221.5,-131 221.5,-109 221.5,-109 221.5,-104 226.5,-99 231.5,-99"/>
<path fill="none" stroke="black" d="M231.5,-99C231.5,-99 241.5,-99 241.5,-99 246.5,-99 251.5,-104 251.5,-109 251.5,-109 251.5,-131 251.5,-131 251.5,-136 246.5,-141 241.5,-141 241.5,-141 231.5,-141 231.5,-141 226.5,-141 221.5,-136 221.5,-131 221.5,-131 221.5,-109 221.5,-109 221.5,-104 226.5,-99 231.5,-99"/>
<text text-anchor="start" x="227.5" y="-123.8" font-family="Times,serif" font-size="14.00">erk</text>
<text text-anchor="start" x="233" y="-108.8" font-family="Times,serif" font-size="14.00">0</text>
<path fill="#b2df8a" stroke="transparent" d="M261.83,-99C261.83,-99 270.17,-99 270.17,-99 274.33,-99 278.5,-103.17 278.5,-107.33 278.5,-107.33 278.5,-132.67 278.5,-132.67 278.5,-136.83 274.33,-141 270.17,-141 270.17,-141 261.83,-141 261.83,-141 257.67,-141 253.5,-136.83 253.5,-132.67 253.5,-132.67 253.5,-107.33 253.5,-107.33 253.5,-103.17 257.67,-99 261.83,-99"/>
<path fill="none" stroke="black" d="M261.83,-99C261.83,-99 270.17,-99 270.17,-99 274.33,-99 278.5,-103.17 278.5,-107.33 278.5,-107.33 278.5,-132.67 278.5,-132.67 278.5,-136.83 274.33,-141 270.17,-141 270.17,-141 261.83,-141 261.83,-141 257.67,-141 253.5,-136.83 253.5,-132.67 253.5,-132.67 253.5,-107.33 253.5,-107.33 253.5,-103.17 257.67,-99 261.83,-99"/>
<text text-anchor="start" x="259.5" y="-123.8" font-family="Times,serif" font-size="14.00">ex</text>
<text text-anchor="start" x="262.5" y="-108.8" font-family="Times,serif" font-size="14.00">1</text>
<path fill="#b2df8a" stroke="transparent" d="M292.5,-99C292.5,-99 306.5,-99 306.5,-99 312.5,-99 318.5,-105 318.5,-111 318.5,-111 318.5,-129 318.5,-129 318.5,-135 312.5,-141 306.5,-141 306.5,-141 292.5,-141 292.5,-141 286.5,-141 280.5,-135 280.5,-129 280.5,-129 280.5,-111 280.5,-111 280.5,-105 286.5,-99 292.5,-99"/>
<path fill="none" stroke="black" d="M292.5,-99C292.5,-99 306.5,-99 306.5,-99 312.5,-99 318.5,-105 318.5,-111 318.5,-111 318.5,-129 318.5,-129 318.5,-135 312.5,-141 306.5,-141 306.5,-141 292.5,-141 292.5,-141 286.5,-141 280.5,-135 280.5,-129 280.5,-129 280.5,-111 280.5,-111 280.5,-105 286.5,-99 292.5,-99"/>
<text text-anchor="start" x="286.5" y="-123.8" font-family="Times,serif" font-size="14.00">gsk3</text>
<text text-anchor="start" x="296" y="-108.8" font-family="Times,serif" font-size="14.00">1</text>
<path fill="#b2df8a" stroke="transparent" d="M330.5,-99C330.5,-99 340.5,-99 340.5,-99 345.5,-99 350.5,-104 350.5,-109 350.5,-109 350.5,-131 350.5,-131 350.5,-136 345.5,-141 340.5,-141 340.5,-141 330.5,-141 330.5,-141 325.5,-141 320.5,-136 320.5,-131 320.5,-131 320.5,-109 320.5,-109 320.5,-104 325.5,-99 330.5,-99"/>
<path fill="none" stroke="black" d="M330.5,-99C330.5,-99 340.5,-99 340.5,-99 345.5,-99 350.5,-104 350.5,-109 350.5,-109 350.5,-131 350.5,-131 350.5,-136 345.5,-141 340.5,-141 340.5,-141 330.5,-141 330.5,-141 325.5,-141 320.5,-136 320.5,-131 320.5,-131 320.5,-109 320.5,-109 320.5,-104 325.5,-99 330.5,-99"/>
<text text-anchor="start" x="326.5" y="-123.8" font-family="Times,serif" font-size="14.00">ikb</text>
<text text-anchor="start" x="332" y="-108.8" font-family="Times,serif" font-size="14.00">1</text>
<path fill="#6f6f6f" stroke="transparent" d="M362.5,-99C362.5,-99 372.5,-99 372.5,-99 377.5,-99 382.5,-104 382.5,-109 382.5,-109 382.5,-131 382.5,-131 382.5,-136 377.5,-141 372.5,-141 372.5,-141 362.5,-141 362.5,-141 357.5,-141 352.5,-136 352.5,-131 352.5,-131 352.5,-109 352.5,-109 352.5,-104 357.5,-99 362.5,-99"/>
<path fill="none" stroke="black" d="M362.5,-99C362.5,-99 372.5,-99 372.5,-99 377.5,-99 382.5,-104 382.5,-109 382.5,-109 382.5,-131 382.5,-131 382.5,-136 377.5,-141 372.5,-141 372.5,-141 362.5,-141 362.5,-141 357.5,-141 352.5,-136 352.5,-131 352.5,-131 352.5,-109 352.5,-109 352.5,-104 357.5,-99 362.5,-99"/>
<text text-anchor="start" x="358.5" y="-123.8" font-family="Times,serif" font-size="14.00">ikk</text>
<text text-anchor="start" x="364" y="-108.8" font-family="Times,serif" font-size="14.00">0</text>
<path fill="#6f6f6f" stroke="transparent" d="M394.5,-99C394.5,-99 404.5,-99 404.5,-99 409.5,-99 414.5,-104 414.5,-109 414.5,-109 414.5,-131 414.5,-131 414.5,-136 409.5,-141 404.5,-141 404.5,-141 394.5,-141 394.5,-141 389.5,-141 384.5,-136 384.5,-131 384.5,-131 384.5,-109 384.5,-109 384.5,-104 389.5,-99 394.5,-99"/>
<path fill="none" stroke="black" d="M394.5,-99C394.5,-99 404.5,-99 404.5,-99 409.5,-99 414.5,-104 414.5,-109 414.5,-109 414.5,-131 414.5,-131 414.5,-136 409.5,-141 404.5,-141 404.5,-141 394.5,-141 394.5,-141 389.5,-141 384.5,-136 384.5,-131 384.5,-131 384.5,-109 384.5,-109 384.5,-104 389.5,-99 394.5,-99"/>
<text text-anchor="start" x="390.5" y="-123.8" font-family="Times,serif" font-size="14.00">jnk</text>
<text text-anchor="start" x="396" y="-108.8" font-family="Times,serif" font-size="14.00">0</text>
<path fill="#6f6f6f" stroke="transparent" d="M428.5,-99C428.5,-99 454.5,-99 454.5,-99 460.5,-99 466.5,-105 466.5,-111 466.5,-111 466.5,-129 466.5,-129 466.5,-135 460.5,-141 454.5,-141 454.5,-141 428.5,-141 428.5,-141 422.5,-141 416.5,-135 416.5,-129 416.5,-129 416.5,-111 416.5,-111 416.5,-105 422.5,-99 428.5,-99"/>
<path fill="none" stroke="black" d="M428.5,-99C428.5,-99 454.5,-99 454.5,-99 460.5,-99 466.5,-105 466.5,-111 466.5,-111 466.5,-129 466.5,-129 466.5,-135 460.5,-141 454.5,-141 454.5,-141 428.5,-141 428.5,-141 422.5,-141 416.5,-135 416.5,-129 416.5,-129 416.5,-111 416.5,-111 416.5,-105 422.5,-99 428.5,-99"/>
<text text-anchor="start" x="422.5" y="-123.8" font-family="Times,serif" font-size="14.00">map3k</text>
<text text-anchor="start" x="438" y="-108.8" font-family="Times,serif" font-size="14.00">0</text>
<path fill="#6f6f6f" stroke="transparent" d="M480.5,-99C480.5,-99 506.5,-99 506.5,-99 512.5,-99 518.5,-105 518.5,-111 518.5,-111 518.5,-129 518.5,-129 518.5,-135 512.5,-141 506.5,-141 506.5,-141 480.5,-141 480.5,-141 474.5,-141 468.5,-135 468.5,-129 468.5,-129 468.5,-111 468.5,-111 468.5,-105 474.5,-99 480.5,-99"/>
<path fill="none" stroke="black" d="M480.5,-99C480.5,-99 506.5,-99 506.5,-99 512.5,-99 518.5,-105 518.5,-111 518.5,-111 518.5,-129 518.5,-129 518.5,-135 512.5,-141 506.5,-141 506.5,-141 480.5,-141 480.5,-141 474.5,-141 468.5,-135 468.5,-129 468.5,-129 468.5,-111 468.5,-111 468.5,-105 474.5,-99 480.5,-99"/>
<text text-anchor="start" x="474.5" y="-123.8" font-family="Times,serif" font-size="14.00">map3k</text>
<text text-anchor="start" x="490" y="-108.8" font-family="Times,serif" font-size="14.00">0</text>
<path fill="#6f6f6f" stroke="transparent" d="M532.5,-99C532.5,-99 545.5,-99 545.5,-99 551.5,-99 557.5,-105 557.5,-111 557.5,-111 557.5,-129 557.5,-129 557.5,-135 551.5,-141 545.5,-141 545.5,-141 532.5,-141 532.5,-141 526.5,-141 520.5,-135 520.5,-129 520.5,-129 520.5,-111 520.5,-111 520.5,-105 526.5,-99 532.5,-99"/>
<path fill="none" stroke="black" d="M532.5,-99C532.5,-99 545.5,-99 545.5,-99 551.5,-99 557.5,-105 557.5,-111 557.5,-111 557.5,-129 557.5,-129 557.5,-135 551.5,-141 545.5,-141 545.5,-141 532.5,-141 532.5,-141 526.5,-141 520.5,-135 520.5,-129 520.5,-129 520.5,-111 520.5,-111 520.5,-105 526.5,-99 532.5,-99"/>
<text text-anchor="start" x="526.5" y="-123.8" font-family="Times,serif" font-size="14.00">mek</text>
<text text-anchor="start" x="535.5" y="-108.8" font-family="Times,serif" font-size="14.00">0</text>
<path fill="#6f6f6f" stroke="transparent" d="M571.5,-99C571.5,-99 591.5,-99 591.5,-99 597.5,-99 603.5,-105 603.5,-111 603.5,-111 603.5,-129 603.5,-129 603.5,-135 597.5,-141 591.5,-141 591.5,-141 571.5,-141 571.5,-141 565.5,-141 559.5,-135 559.5,-129 559.5,-129 559.5,-111 559.5,-111 559.5,-105 565.5,-99 571.5,-99"/>
<path fill="none" stroke="black" d="M571.5,-99C571.5,-99 591.5,-99 591.5,-99 597.5,-99 603.5,-105 603.5,-111 603.5,-111 603.5,-129 603.5,-129 603.5,-135 597.5,-141 591.5,-141 591.5,-141 571.5,-141 571.5,-141 565.5,-141 559.5,-135 559.5,-129 559.5,-129 559.5,-111 559.5,-111 559.5,-105 565.5,-99 571.5,-99"/>
<text text-anchor="start" x="565.5" y="-123.8" font-family="Times,serif" font-size="14.00">mkk4</text>
<text text-anchor="start" x="578" y="-108.8" font-family="Times,serif" font-size="14.00">0</text>
<path fill="#6f6f6f" stroke="transparent" d="M617.5,-99C617.5,-99 637.5,-99 637.5,-99 643.5,-99 649.5,-105 649.5,-111 649.5,-111 649.5,-129 649.5,-129 649.5,-135 643.5,-141 637.5,-141 637.5,-141 617.5,-141 617.5,-141 611.5,-141 605.5,-135 605.5,-129 605.5,-129 605.5,-111 605.5,-111 605.5,-105 611.5,-99 617.5,-99"/>
<path fill="none" stroke="black" d="M617.5,-99C617.5,-99 637.5,-99 637.5,-99 643.5,-99 649.5,-105 649.5,-111 649.5,-111 649.5,-129 649.5,-129 649.5,-135 643.5,-141 637.5,-141 637.5,-141 617.5,-141 617.5,-141 611.5,-141 605.5,-135 605.5,-129 605.5,-129 605.5,-111 605.5,-111 605.5,-105 611.5,-99 617.5,-99"/>
<text text-anchor="start" x="611.5" y="-123.8" font-family="Times,serif" font-size="14.00">mkk7</text>
<text text-anchor="start" x="624" y="-108.8" font-family="Times,serif" font-size="14.00">0</text>
<path fill="#6f6f6f" stroke="transparent" d="M663.5,-99C663.5,-99 676.5,-99 676.5,-99 682.5,-99 688.5,-105 688.5,-111 688.5,-111 688.5,-129 688.5,-129 688.5,-135 682.5,-141 676.5,-141 676.5,-141 663.5,-141 663.5,-141 657.5,-141 651.5,-135 651.5,-129 651.5,-129 651.5,-111 651.5,-111 651.5,-105 657.5,-99 663.5,-99"/>
<path fill="none" stroke="black" d="M663.5,-99C663.5,-99 676.5,-99 676.5,-99 682.5,-99 688.5,-105 688.5,-111 688.5,-111 688.5,-129 688.5,-129 688.5,-135 682.5,-141 676.5,-141 676.5,-141 663.5,-141 663.5,-141 657.5,-141 651.5,-135 651.5,-129 651.5,-129 651.5,-111 651.5,-111 651.5,-105 657.5,-99 663.5,-99"/>
<text text-anchor="start" x="657.5" y="-123.8" font-family="Times,serif" font-size="14.00">nfkb</text>
<text text-anchor="start" x="666.5" y="-108.8" font-family="Times,serif" font-size="14.00">0</text>
<path fill="#6f6f6f" stroke="transparent" d="M700.5,-99C700.5,-99 710.5,-99 710.5,-99 715.5,-99 720.5,-104 720.5,-109 720.5,-109 720.5,-131 720.5,-131 720.5,-136 715.5,-141 710.5,-141 710.5,-141 700.5,-141 700.5,-141 695.5,-141 690.5,-136 690.5,-131 690.5,-131 690.5,-109 690.5,-109 690.5,-104 695.5,-99 700.5,-99"/>
<path fill="none" stroke="black" d="M700.5,-99C700.5,-99 710.5,-99 710.5,-99 715.5,-99 720.5,-104 720.5,-109 720.5,-109 720.5,-131 720.5,-131 720.5,-136 715.5,-141 710.5,-141 710.5,-141 700.5,-141 700.5,-141 695.5,-141 690.5,-136 690.5,-131 690.5,-131 690.5,-109 690.5,-109 690.5,-104 695.5,-99 700.5,-99"/>
<text text-anchor="start" x="696.5" y="-123.8" font-family="Times,serif" font-size="14.00">nik</text>
<text text-anchor="start" x="702" y="-108.8" font-family="Times,serif" font-size="14.00">0</text>
<path fill="#6f6f6f" stroke="transparent" d="M733.5,-99C733.5,-99 744.5,-99 744.5,-99 750,-99 755.5,-104.5 755.5,-110 755.5,-110 755.5,-130 755.5,-130 755.5,-135.5 750,-141 744.5,-141 744.5,-141 733.5,-141 733.5,-141 728,-141 722.5,-135.5 722.5,-130 722.5,-130 722.5,-110 722.5,-110 722.5,-104.5 728,-99 733.5,-99"/>
<path fill="none" stroke="black" d="M733.5,-99C733.5,-99 744.5,-99 744.5,-99 750,-99 755.5,-104.5 755.5,-110 755.5,-110 755.5,-130 755.5,-130 755.5,-135.5 750,-141 744.5,-141 744.5,-141 733.5,-141 733.5,-141 728,-141 722.5,-135.5 722.5,-130 722.5,-130 722.5,-110 722.5,-110 722.5,-104.5 728,-99 733.5,-99"/>
<text text-anchor="start" x="728.5" y="-123.8" font-family="Times,serif" font-size="14.00">p38</text>
<text text-anchor="start" x="735.5" y="-108.8" font-family="Times,serif" font-size="14.00">0</text>
<path fill="#6f6f6f" stroke="transparent" d="M766.17,-99C766.17,-99 774.83,-99 774.83,-99 779.17,-99 783.5,-103.33 783.5,-107.67 783.5,-107.67 783.5,-132.33 783.5,-132.33 783.5,-136.67 779.17,-141 774.83,-141 774.83,-141 766.17,-141 766.17,-141 761.83,-141 757.5,-136.67 757.5,-132.33 757.5,-132.33 757.5,-107.67 757.5,-107.67 757.5,-103.33 761.83,-99 766.17,-99"/>
<path fill="none" stroke="black" d="M766.17,-99C766.17,-99 774.83,-99 774.83,-99 779.17,-99 783.5,-103.33 783.5,-107.67 783.5,-107.67 783.5,-132.33 783.5,-132.33 783.5,-136.67 779.17,-141 774.83,-141 774.83,-141 766.17,-141 766.17,-141 761.83,-141 757.5,-136.67 757.5,-132.33 757.5,-132.33 757.5,-107.67 757.5,-107.67 757.5,-103.33 761.83,-99 766.17,-99"/>
<text text-anchor="start" x="763.5" y="-123.8" font-family="Times,serif" font-size="14.00">ph</text>
<text text-anchor="start" x="767" y="-108.8" font-family="Times,serif" font-size="14.00">0</text>
<path fill="#6f6f6f" stroke="transparent" d="M797.5,-99C797.5,-99 810.5,-99 810.5,-99 816.5,-99 822.5,-105 822.5,-111 822.5,-111 822.5,-129 822.5,-129 822.5,-135 816.5,-141 810.5,-141 810.5,-141 797.5,-141 797.5,-141 791.5,-141 785.5,-135 785.5,-129 785.5,-129 785.5,-111 785.5,-111 785.5,-105 791.5,-99 797.5,-99"/>
<path fill="none" stroke="black" d="M797.5,-99C797.5,-99 810.5,-99 810.5,-99 816.5,-99 822.5,-105 822.5,-111 822.5,-111 822.5,-129 822.5,-129 822.5,-135 816.5,-141 810.5,-141 810.5,-141 797.5,-141 797.5,-141 791.5,-141 785.5,-135 785.5,-129 785.5,-129 785.5,-111 785.5,-111 785.5,-105 791.5,-99 797.5,-99"/>
<text text-anchor="start" x="791.5" y="-123.8" font-family="Times,serif" font-size="14.00">pi3k</text>
<text text-anchor="start" x="800.5" y="-108.8" font-family="Times,serif" font-size="14.00">0</text>
<path fill="#6f6f6f" stroke="transparent" d="M835.83,-99C835.83,-99 847.17,-99 847.17,-99 852.83,-99 858.5,-104.67 858.5,-110.33 858.5,-110.33 858.5,-129.67 858.5,-129.67 858.5,-135.33 852.83,-141 847.17,-141 847.17,-141 835.83,-141 835.83,-141 830.17,-141 824.5,-135.33 824.5,-129.67 824.5,-129.67 824.5,-110.33 824.5,-110.33 824.5,-104.67 830.17,-99 835.83,-99"/>
<path fill="none" stroke="black" d="M835.83,-99C835.83,-99 847.17,-99 847.17,-99 852.83,-99 858.5,-104.67 858.5,-110.33 858.5,-110.33 858.5,-129.67 858.5,-129.67 858.5,-135.33 852.83,-141 847.17,-141 847.17,-141 835.83,-141 835.83,-141 830.17,-141 824.5,-135.33 824.5,-129.67 824.5,-129.67 824.5,-110.33 824.5,-110.33 824.5,-104.67 830.17,-99 835.83,-99"/>
<text text-anchor="start" x="830.5" y="-123.8" font-family="Times,serif" font-size="14.00">raf1</text>
<text text-anchor="start" x="838" y="-108.8" font-family="Times,serif" font-size="14.00">0</text>
<path fill="#6f6f6f" stroke="transparent" d="M869.83,-99C869.83,-99 879.17,-99 879.17,-99 883.83,-99 888.5,-103.67 888.5,-108.33 888.5,-108.33 888.5,-131.67 888.5,-131.67 888.5,-136.33 883.83,-141 879.17,-141 879.17,-141 869.83,-141 869.83,-141 865.17,-141 860.5,-136.33 860.5,-131.67 860.5,-131.67 860.5,-108.33 860.5,-108.33 860.5,-103.67 865.17,-99 869.83,-99"/>
<path fill="none" stroke="black" d="M869.83,-99C869.83,-99 879.17,-99 879.17,-99 883.83,-99 888.5,-103.67 888.5,-108.33 888.5,-108.33 888.5,-131.67 888.5,-131.67 888.5,-136.33 883.83,-141 879.17,-141 879.17,-141 869.83,-141 869.83,-141 865.17,-141 860.5,-136.33 860.5,-131.67 860.5,-131.67 860.5,-108.33 860.5,-108.33 860.5,-103.67 865.17,-99 869.83,-99"/>
<text text-anchor="start" x="866.5" y="-123.8" font-family="Times,serif" font-size="14.00">ras</text>
<text text-anchor="start" x="871" y="-108.8" font-family="Times,serif" font-size="14.00">0</text>
<path fill="#6f6f6f" stroke="transparent" d="M900.5,-99C900.5,-99 910.5,-99 910.5,-99 915.5,-99 920.5,-104 920.5,-109 920.5,-109 920.5,-131 920.5,-131 920.5,-136 915.5,-141 910.5,-141 910.5,-141 900.5,-141 900.5,-141 895.5,-141 890.5,-136 890.5,-131 890.5,-131 890.5,-109 890.5,-109 890.5,-104 895.5,-99 900.5,-99"/>
<path fill="none" stroke="black" d="M900.5,-99C900.5,-99 910.5,-99 910.5,-99 915.5,-99 920.5,-104 920.5,-109 920.5,-109 920.5,-131 920.5,-131 920.5,-136 915.5,-141 910.5,-141 910.5,-141 900.5,-141 900.5,-141 895.5,-141 890.5,-136 890.5,-131 890.5,-131 890.5,-109 890.5,-109 890.5,-104 895.5,-99 900.5,-99"/>
<text text-anchor="start" x="896.5" y="-123.8" font-family="Times,serif" font-size="14.00">sos</text>
<text text-anchor="start" x="902" y="-108.8" font-family="Times,serif" font-size="14.00">0</text>
<path fill="#6f6f6f" stroke="transparent" d="M933.83,-99C933.83,-99 945.17,-99 945.17,-99 950.83,-99 956.5,-104.67 956.5,-110.33 956.5,-110.33 956.5,-129.67 956.5,-129.67 956.5,-135.33 950.83,-141 945.17,-141 945.17,-141 933.83,-141 933.83,-141 928.17,-141 922.5,-135.33 922.5,-129.67 922.5,-129.67 922.5,-110.33 922.5,-110.33 922.5,-104.67 928.17,-99 933.83,-99"/>
<path fill="none" stroke="black" d="M933.83,-99C933.83,-99 945.17,-99 945.17,-99 950.83,-99 956.5,-104.67 956.5,-110.33 956.5,-110.33 956.5,-129.67 956.5,-129.67 956.5,-135.33 950.83,-141 945.17,-141 945.17,-141 933.83,-141 933.83,-141 928.17,-141 922.5,-135.33 922.5,-129.67 922.5,-129.67 922.5,-110.33 922.5,-110.33 922.5,-104.67 928.17,-99 933.83,-99"/>
<text text-anchor="start" x="928.5" y="-123.8" font-family="Times,serif" font-size="14.00">tnfa</text>
<text text-anchor="start" x="936" y="-108.8" font-family="Times,serif" font-size="14.00">0</text>
<path fill="#6f6f6f" stroke="transparent" d="M969.17,-99C969.17,-99 979.83,-99 979.83,-99 985.17,-99 990.5,-104.33 990.5,-109.67 990.5,-109.67 990.5,-130.33 990.5,-130.33 990.5,-135.67 985.17,-141 979.83,-141 979.83,-141 969.17,-141 969.17,-141 963.83,-141 958.5,-135.67 958.5,-130.33 958.5,-130.33 958.5,-109.67 958.5,-109.67 958.5,-104.33 963.83,-99 969.17,-99"/>
<path fill="none" stroke="black" d="M969.17,-99C969.17,-99 979.83,-99 979.83,-99 985.17,-99 990.5,-104.33 990.5,-109.67 990.5,-109.67 990.5,-130.33 990.5,-130.33 990.5,-135.67 985.17,-141 979.83,-141 979.83,-141 969.17,-141 969.17,-141 963.83,-141 958.5,-135.67 958.5,-130.33 958.5,-130.33 958.5,-109.67 958.5,-109.67 958.5,-104.33 963.83,-99 969.17,-99"/>
<text text-anchor="start" x="964.5" y="-123.8" font-family="Times,serif" font-size="14.00">tnfr</text>
<text text-anchor="start" x="971" y="-108.8" font-family="Times,serif" font-size="14.00">0</text>
<path fill="#6f6f6f" stroke="transparent" d="M1004.5,-99C1004.5,-99 1018.5,-99 1018.5,-99 1024.5,-99 1030.5,-105 1030.5,-111 1030.5,-111 1030.5,-129 1030.5,-129 1030.5,-135 1024.5,-141 1018.5,-141 1018.5,-141 1004.5,-141 1004.5,-141 998.5,-141 992.5,-135 992.5,-129 992.5,-129 992.5,-111 992.5,-111 992.5,-105 998.5,-99 1004.5,-99"/>
<path fill="none" stroke="black" d="M1004.5,-99C1004.5,-99 1018.5,-99 1018.5,-99 1024.5,-99 1030.5,-105 1030.5,-111 1030.5,-111 1030.5,-129 1030.5,-129 1030.5,-135 1024.5,-141 1018.5,-141 1018.5,-141 1004.5,-141 1004.5,-141 998.5,-141 992.5,-135 992.5,-129 992.5,-129 992.5,-111 992.5,-111 992.5,-105 998.5,-99 1004.5,-99"/>
<text text-anchor="start" x="998.5" y="-123.8" font-family="Times,serif" font-size="14.00">traf2</text>
<text text-anchor="start" x="1008" y="-108.8" font-family="Times,serif" font-size="14.00">0</text>
<polygon fill="none" stroke="black" points="8,-96 8,-144 1033,-144 1033,-96 8,-96"/>
</g>
<!-- 0000000011000000010000000000&#45;&gt;0000000111000000000000000000 -->
<g id="edge2" class="edge">
<title>0000000011000000010000000000&#45;&gt;0000000111000000000000000000</title>
<path fill="none" stroke="black" d="M520.5,-184C520.5,-175.97 520.5,-167.03 520.5,-158.47"/>
<polygon fill="black" stroke="black" points="524,-158.29 520.5,-148.29 517,-158.29 524,-158.29"/>
</g>
<!-- 0000000011000000000000000000 -->
<g id="node4" class="node">
<title>0000000011000000000000000000</title>
<polygon fill="transparent" stroke="transparent" points="1041,-56 0,-56 0,0 1041,0 1041,-56"/>
<path fill="#6f6f6f" stroke="transparent" d="M21.17,-7C21.17,-7 30.83,-7 30.83,-7 35.67,-7 40.5,-11.83 40.5,-16.67 40.5,-16.67 40.5,-39.33 40.5,-39.33 40.5,-44.17 35.67,-49 30.83,-49 30.83,-49 21.17,-49 21.17,-49 16.33,-49 11.5,-44.17 11.5,-39.33 11.5,-39.33 11.5,-16.67 11.5,-16.67 11.5,-11.83 16.33,-7 21.17,-7"/>
<path fill="none" stroke="black" d="M21.17,-7C21.17,-7 30.83,-7 30.83,-7 35.67,-7 40.5,-11.83 40.5,-16.67 40.5,-16.67 40.5,-39.33 40.5,-39.33 40.5,-44.17 35.67,-49 30.83,-49 30.83,-49 21.17,-49 21.17,-49 16.33,-49 11.5,-44.17 11.5,-39.33 11.5,-39.33 11.5,-16.67 11.5,-16.67 11.5,-11.83 16.33,-7 21.17,-7"/>
<text text-anchor="start" x="17.5" y="-31.8" font-family="Times,serif" font-size="14.00">akt</text>
<text text-anchor="start" x="22.5" y="-16.8" font-family="Times,serif" font-size="14.00">0</text>
<path fill="#6f6f6f" stroke="transparent" d="M53.17,-7C53.17,-7 63.83,-7 63.83,-7 69.17,-7 74.5,-12.33 74.5,-17.67 74.5,-17.67 74.5,-38.33 74.5,-38.33 74.5,-43.67 69.17,-49 63.83,-49 63.83,-49 53.17,-49 53.17,-49 47.83,-49 42.5,-43.67 42.5,-38.33 42.5,-38.33 42.5,-17.67 42.5,-17.67 42.5,-12.33 47.83,-7 53.17,-7"/>
<path fill="none" stroke="black" d="M53.17,-7C53.17,-7 63.83,-7 63.83,-7 69.17,-7 74.5,-12.33 74.5,-17.67 74.5,-17.67 74.5,-38.33 74.5,-38.33 74.5,-43.67 69.17,-49 63.83,-49 63.83,-49 53.17,-49 53.17,-49 47.83,-49 42.5,-43.67 42.5,-38.33 42.5,-38.33 42.5,-17.67 42.5,-17.67 42.5,-12.33 47.83,-7 53.17,-7"/>
<text text-anchor="start" x="48.5" y="-31.8" font-family="Times,serif" font-size="14.00">ap1</text>
<text text-anchor="start" x="55" y="-16.8" font-family="Times,serif" font-size="14.00">0</text>
<path fill="#6f6f6f" stroke="transparent" d="M88.5,-7C88.5,-7 101.5,-7 101.5,-7 107.5,-7 113.5,-13 113.5,-19 113.5,-19 113.5,-37 113.5,-37 113.5,-43 107.5,-49 101.5,-49 101.5,-49 88.5,-49 88.5,-49 82.5,-49 76.5,-43 76.5,-37 76.5,-37 76.5,-19 76.5,-19 76.5,-13 82.5,-7 88.5,-7"/>
<path fill="none" stroke="black" d="M88.5,-7C88.5,-7 101.5,-7 101.5,-7 107.5,-7 113.5,-13 113.5,-19 113.5,-19 113.5,-37 113.5,-37 113.5,-43 107.5,-49 101.5,-49 101.5,-49 88.5,-49 88.5,-49 82.5,-49 76.5,-43 76.5,-37 76.5,-37 76.5,-19 76.5,-19 76.5,-13 82.5,-7 88.5,-7"/>
<text text-anchor="start" x="82.5" y="-31.8" font-family="Times,serif" font-size="14.00">ask1</text>
<text text-anchor="start" x="91.5" y="-16.8" font-family="Times,serif" font-size="14.00">0</text>
<path fill="#6f6f6f" stroke="transparent" d="M127.5,-7C127.5,-7 139.5,-7 139.5,-7 145.5,-7 151.5,-13 151.5,-19 151.5,-19 151.5,-37 151.5,-37 151.5,-43 145.5,-49 139.5,-49 139.5,-49 127.5,-49 127.5,-49 121.5,-49 115.5,-43 115.5,-37 115.5,-37 115.5,-19 115.5,-19 115.5,-13 121.5,-7 127.5,-7"/>
<path fill="none" stroke="black" d="M127.5,-7C127.5,-7 139.5,-7 139.5,-7 145.5,-7 151.5,-13 151.5,-19 151.5,-19 151.5,-37 151.5,-37 151.5,-43 145.5,-49 139.5,-49 139.5,-49 127.5,-49 127.5,-49 121.5,-49 115.5,-43 115.5,-37 115.5,-37 115.5,-19 115.5,-19 115.5,-13 121.5,-7 127.5,-7"/>
<text text-anchor="start" x="121.5" y="-31.8" font-family="Times,serif" font-size="14.00">cjun</text>
<text text-anchor="start" x="130" y="-16.8" font-family="Times,serif" font-size="14.00">0</text>
<path fill="#6f6f6f" stroke="transparent" d="M163.5,-7C163.5,-7 173.5,-7 173.5,-7 178.5,-7 183.5,-12 183.5,-17 183.5,-17 183.5,-39 183.5,-39 183.5,-44 178.5,-49 173.5,-49 173.5,-49 163.5,-49 163.5,-49 158.5,-49 153.5,-44 153.5,-39 153.5,-39 153.5,-17 153.5,-17 153.5,-12 158.5,-7 163.5,-7"/>
<path fill="none" stroke="black" d="M163.5,-7C163.5,-7 173.5,-7 173.5,-7 178.5,-7 183.5,-12 183.5,-17 183.5,-17 183.5,-39 183.5,-39 183.5,-44 178.5,-49 173.5,-49 173.5,-49 163.5,-49 163.5,-49 158.5,-49 153.5,-44 153.5,-39 153.5,-39 153.5,-17 153.5,-17 153.5,-12 158.5,-7 163.5,-7"/>
<text text-anchor="start" x="159.5" y="-31.8" font-family="Times,serif" font-size="14.00">egf</text>
<text text-anchor="start" x="165" y="-16.8" font-family="Times,serif" font-size="14.00">0</text>
<path fill="#6f6f6f" stroke="transparent" d="M196.83,-7C196.83,-7 208.17,-7 208.17,-7 213.83,-7 219.5,-12.67 219.5,-18.33 219.5,-18.33 219.5,-37.67 219.5,-37.67 219.5,-43.33 213.83,-49 208.17,-49 208.17,-49 196.83,-49 196.83,-49 191.17,-49 185.5,-43.33 185.5,-37.67 185.5,-37.67 185.5,-18.33 185.5,-18.33 185.5,-12.67 191.17,-7 196.83,-7"/>
<path fill="none" stroke="black" d="M196.83,-7C196.83,-7 208.17,-7 208.17,-7 213.83,-7 219.5,-12.67 219.5,-18.33 219.5,-18.33 219.5,-37.67 219.5,-37.67 219.5,-43.33 213.83,-49 208.17,-49 208.17,-49 196.83,-49 196.83,-49 191.17,-49 185.5,-43.33 185.5,-37.67 185.5,-37.67 185.5,-18.33 185.5,-18.33 185.5,-12.67 191.17,-7 196.83,-7"/>
<text text-anchor="start" x="191.5" y="-31.8" font-family="Times,serif" font-size="14.00">egfr</text>
<text text-anchor="start" x="199" y="-16.8" font-family="Times,serif" font-size="14.00">0</text>
<path fill="#6f6f6f" stroke="transparent" d="M231.5,-7C231.5,-7 241.5,-7 241.5,-7 246.5,-7 251.5,-12 251.5,-17 251.5,-17 251.5,-39 251.5,-39 251.5,-44 246.5,-49 241.5,-49 241.5,-49 231.5,-49 231.5,-49 226.5,-49 221.5,-44 221.5,-39 221.5,-39 221.5,-17 221.5,-17 221.5,-12 226.5,-7 231.5,-7"/>
<path fill="none" stroke="black" d="M231.5,-7C231.5,-7 241.5,-7 241.5,-7 246.5,-7 251.5,-12 251.5,-17 251.5,-17 251.5,-39 251.5,-39 251.5,-44 246.5,-49 241.5,-49 241.5,-49 231.5,-49 231.5,-49 226.5,-49 221.5,-44 221.5,-39 221.5,-39 221.5,-17 221.5,-17 221.5,-12 226.5,-7 231.5,-7"/>
<text text-anchor="start" x="227.5" y="-31.8" font-family="Times,serif" font-size="14.00">erk</text>
<text text-anchor="start" x="233" y="-16.8" font-family="Times,serif" font-size="14.00">0</text>
<path fill="#6f6f6f" stroke="transparent" d="M261.83,-7C261.83,-7 270.17,-7 270.17,-7 274.33,-7 278.5,-11.17 278.5,-15.33 278.5,-15.33 278.5,-40.67 278.5,-40.67 278.5,-44.83 274.33,-49 270.17,-49 270.17,-49 261.83,-49 261.83,-49 257.67,-49 253.5,-44.83 253.5,-40.67 253.5,-40.67 253.5,-15.33 253.5,-15.33 253.5,-11.17 257.67,-7 261.83,-7"/>
<path fill="none" stroke="black" d="M261.83,-7C261.83,-7 270.17,-7 270.17,-7 274.33,-7 278.5,-11.17 278.5,-15.33 278.5,-15.33 278.5,-40.67 278.5,-40.67 278.5,-44.83 274.33,-49 270.17,-49 270.17,-49 261.83,-49 261.83,-49 257.67,-49 253.5,-44.83 253.5,-40.67 253.5,-40.67 253.5,-15.33 253.5,-15.33 253.5,-11.17 257.67,-7 261.83,-7"/>
<text text-anchor="start" x="259.5" y="-31.8" font-family="Times,serif" font-size="14.00">ex</text>
<text text-anchor="start" x="262.5" y="-16.8" font-family="Times,serif" font-size="14.00">0</text>
<path fill="#b2df8a" stroke="transparent" d="M292.5,-7C292.5,-7 306.5,-7 306.5,-7 312.5,-7 318.5,-13 318.5,-19 318.5,-19 318.5,-37 318.5,-37 318.5,-43 312.5,-49 306.5,-49 306.5,-49 292.5,-49 292.5,-49 286.5,-49 280.5,-43 280.5,-37 280.5,-37 280.5,-19 280.5,-19 280.5,-13 286.5,-7 292.5,-7"/>
<path fill="none" stroke="black" d="M292.5,-7C292.5,-7 306.5,-7 306.5,-7 312.5,-7 318.5,-13 318.5,-19 318.5,-19 318.5,-37 318.5,-37 318.5,-43 312.5,-49 306.5,-49 306.5,-49 292.5,-49 292.5,-49 286.5,-49 280.5,-43 280.5,-37 280.5,-37 280.5,-19 280.5,-19 280.5,-13 286.5,-7 292.5,-7"/>
<text text-anchor="start" x="286.5" y="-31.8" font-family="Times,serif" font-size="14.00">gsk3</text>
<text text-anchor="start" x="296" y="-16.8" font-family="Times,serif" font-size="14.00">1</text>
<path fill="#b2df8a" stroke="transparent" d="M330.5,-7C330.5,-7 340.5,-7 340.5,-7 345.5,-7 350.5,-12 350.5,-17 350.5,-17 350.5,-39 350.5,-39 350.5,-44 345.5,-49 340.5,-49 340.5,-49 330.5,-49 330.5,-49 325.5,-49 320.5,-44 320.5,-39 320.5,-39 320.5,-17 320.5,-17 320.5,-12 325.5,-7 330.5,-7"/>
<path fill="none" stroke="black" d="M330.5,-7C330.5,-7 340.5,-7 340.5,-7 345.5,-7 350.5,-12 350.5,-17 350.5,-17 350.5,-39 350.5,-39 350.5,-44 345.5,-49 340.5,-49 340.5,-49 330.5,-49 330.5,-49 325.5,-49 320.5,-44 320.5,-39 320.5,-39 320.5,-17 320.5,-17 320.5,-12 325.5,-7 330.5,-7"/>
<text text-anchor="start" x="326.5" y="-31.8" font-family="Times,serif" font-size="14.00">ikb</text>
<text text-anchor="start" x="332" y="-16.8" font-family="Times,serif" font-size="14.00">1</text>
<path fill="#6f6f6f" stroke="transparent" d="M362.5,-7C362.5,-7 372.5,-7 372.5,-7 377.5,-7 382.5,-12 382.5,-17 382.5,-17 382.5,-39 382.5,-39 382.5,-44 377.5,-49 372.5,-49 372.5,-49 362.5,-49 362.5,-49 357.5,-49 352.5,-44 352.5,-39 352.5,-39 352.5,-17 352.5,-17 352.5,-12 357.5,-7 362.5,-7"/>
<path fill="none" stroke="black" d="M362.5,-7C362.5,-7 372.5,-7 372.5,-7 377.5,-7 382.5,-12 382.5,-17 382.5,-17 382.5,-39 382.5,-39 382.5,-44 377.5,-49 372.5,-49 372.5,-49 362.5,-49 362.5,-49 357.5,-49 352.5,-44 352.5,-39 352.5,-39 352.5,-17 352.5,-17 352.5,-12 357.5,-7 362.5,-7"/>
<text text-anchor="start" x="358.5" y="-31.8" font-family="Times,serif" font-size="14.00">ikk</text>
<text text-anchor="start" x="364" y="-16.8" font-family="Times,serif" font-size="14.00">0</text>
<path fill="#6f6f6f" stroke="transparent" d="M394.5,-7C394.5,-7 404.5,-7 404.5,-7 409.5,-7 414.5,-12 414.5,-17 414.5,-17 414.5,-39 414.5,-39 414.5,-44 409.5,-49 404.5,-49 404.5,-49 394.5,-49 394.5,-49 389.5,-49 384.5,-44 384.5,-39 384.5,-39 384.5,-17 384.5,-17 384.5,-12 389.5,-7 394.5,-7"/>
<path fill="none" stroke="black" d="M394.5,-7C394.5,-7 404.5,-7 404.5,-7 409.5,-7 414.5,-12 414.5,-17 414.5,-17 414.5,-39 414.5,-39 414.5,-44 409.5,-49 404.5,-49 404.5,-49 394.5,-49 394.5,-49 389.5,-49 384.5,-44 384.5,-39 384.5,-39 384.5,-17 384.5,-17 384.5,-12 389.5,-7 394.5,-7"/>
<text text-anchor="start" x="390.5" y="-31.8" font-family="Times,serif" font-size="14.00">jnk</text>
<text text-anchor="start" x="396" y="-16.8" font-family="Times,serif" font-size="14.00">0</text>
<path fill="#6f6f6f" stroke="transparent" d="M428.5,-7C428.5,-7 454.5,-7 454.5,-7 460.5,-7 466.5,-13 466.5,-19 466.5,-19 466.5,-37 466.5,-37 466.5,-43 460.5,-49 454.5,-49 454.5,-49 428.5,-49 428.5,-49 422.5,-49 416.5,-43 416.5,-37 416.5,-37 416.5,-19 416.5,-19 416.5,-13 422.5,-7 428.5,-7"/>
<path fill="none" stroke="black" d="M428.5,-7C428.5,-7 454.5,-7 454.5,-7 460.5,-7 466.5,-13 466.5,-19 466.5,-19 466.5,-37 466.5,-37 466.5,-43 460.5,-49 454.5,-49 454.5,-49 428.5,-49 428.5,-49 422.5,-49 416.5,-43 416.5,-37 416.5,-37 416.5,-19 416.5,-19 416.5,-13 422.5,-7 428.5,-7"/>
<text text-anchor="start" x="422.5" y="-31.8" font-family="Times,serif" font-size="14.00">map3k</text>
<text text-anchor="start" x="438" y="-16.8" font-family="Times,serif" font-size="14.00">0</text>
<path fill="#6f6f6f" stroke="transparent" d="M480.5,-7C480.5,-7 506.5,-7 506.5,-7 512.5,-7 518.5,-13 518.5,-19 518.5,-19 518.5,-37 518.5,-37 518.5,-43 512.5,-49 506.5,-49 506.5,-49 480.5,-49 480.5,-49 474.5,-49 468.5,-43 468.5,-37 468.5,-37 468.5,-19 468.5,-19 468.5,-13 474.5,-7 480.5,-7"/>
<path fill="none" stroke="black" d="M480.5,-7C480.5,-7 506.5,-7 506.5,-7 512.5,-7 518.5,-13 518.5,-19 518.5,-19 518.5,-37 518.5,-37 518.5,-43 512.5,-49 506.5,-49 506.5,-49 480.5,-49 480.5,-49 474.5,-49 468.5,-43 468.5,-37 468.5,-37 468.5,-19 468.5,-19 468.5,-13 474.5,-7 480.5,-7"/>
<text text-anchor="start" x="474.5" y="-31.8" font-family="Times,serif" font-size="14.00">map3k</text>
<text text-anchor="start" x="490" y="-16.8" font-family="Times,serif" font-size="14.00">0</text>
<path fill="#6f6f6f" stroke="transparent" d="M532.5,-7C532.5,-7 545.5,-7 545.5,-7 551.5,-7 557.5,-13 557.5,-19 557.5,-19 557.5,-37 557.5,-37 557.5,-43 551.5,-49 545.5,-49 545.5,-49 532.5,-49 532.5,-49 526.5,-49 520.5,-43 520.5,-37 520.5,-37 520.5,-19 520.5,-19 520.5,-13 526.5,-7 532.5,-7"/>
<path fill="none" stroke="black" d="M532.5,-7C532.5,-7 545.5,-7 545.5,-7 551.5,-7 557.5,-13 557.5,-19 557.5,-19 557.5,-37 557.5,-37 557.5,-43 551.5,-49 545.5,-49 545.5,-49 532.5,-49 532.5,-49 526.5,-49 520.5,-43 520.5,-37 520.5,-37 520.5,-19 520.5,-19 520.5,-13 526.5,-7 532.5,-7"/>
<text text-anchor="start" x="526.5" y="-31.8" font-family="Times,serif" font-size="14.00">mek</text>
<text text-anchor="start" x="535.5" y="-16.8" font-family="Times,serif" font-size="14.00">0</text>
<path fill="#6f6f6f" stroke="transparent" d="M571.5,-7C571.5,-7 591.5,-7 591.5,-7 597.5,-7 603.5,-13 603.5,-19 603.5,-19 603.5,-37 603.5,-37 603.5,-43 597.5,-49 591.5,-49 591.5,-49 571.5,-49 571.5,-49 565.5,-49 559.5,-43 559.5,-37 559.5,-37 559.5,-19 559.5,-19 559.5,-13 565.5,-7 571.5,-7"/>
<path fill="none" stroke="black" d="M571.5,-7C571.5,-7 591.5,-7 591.5,-7 597.5,-7 603.5,-13 603.5,-19 603.5,-19 603.5,-37 603.5,-37 603.5,-43 597.5,-49 591.5,-49 591.5,-49 571.5,-49 571.5,-49 565.5,-49 559.5,-43 559.5,-37 559.5,-37 559.5,-19 559.5,-19 559.5,-13 565.5,-7 571.5,-7"/>
<text text-anchor="start" x="565.5" y="-31.8" font-family="Times,serif" font-size="14.00">mkk4</text>
<text text-anchor="start" x="578" y="-16.8" font-family="Times,serif" font-size="14.00">0</text>
<path fill="#6f6f6f" stroke="transparent" d="M617.5,-7C617.5,-7 637.5,-7 637.5,-7 643.5,-7 649.5,-13 649.5,-19 649.5,-19 649.5,-37 649.5,-37 649.5,-43 643.5,-49 637.5,-49 637.5,-49 617.5,-49 617.5,-49 611.5,-49 605.5,-43 605.5,-37 605.5,-37 605.5,-19 605.5,-19 605.5,-13 611.5,-7 617.5,-7"/>
<path fill="none" stroke="black" d="M617.5,-7C617.5,-7 637.5,-7 637.5,-7 643.5,-7 649.5,-13 649.5,-19 649.5,-19 649.5,-37 649.5,-37 649.5,-43 643.5,-49 637.5,-49 637.5,-49 617.5,-49 617.5,-49 611.5,-49 605.5,-43 605.5,-37 605.5,-37 605.5,-19 605.5,-19 605.5,-13 611.5,-7 617.5,-7"/>
<text text-anchor="start" x="611.5" y="-31.8" font-family="Times,serif" font-size="14.00">mkk7</text>
<text text-anchor="start" x="624" y="-16.8" font-family="Times,serif" font-size="14.00">0</text>
<path fill="#6f6f6f" stroke="transparent" d="M663.5,-7C663.5,-7 676.5,-7 676.5,-7 682.5,-7 688.5,-13 688.5,-19 688.5,-19 688.5,-37 688.5,-37 688.5,-43 682.5,-49 676.5,-49 676.5,-49 663.5,-49 663.5,-49 657.5,-49 651.5,-43 651.5,-37 651.5,-37 651.5,-19 651.5,-19 651.5,-13 657.5,-7 663.5,-7"/>
<path fill="none" stroke="black" d="M663.5,-7C663.5,-7 676.5,-7 676.5,-7 682.5,-7 688.5,-13 688.5,-19 688.5,-19 688.5,-37 688.5,-37 688.5,-43 682.5,-49 676.5,-49 676.5,-49 663.5,-49 663.5,-49 657.5,-49 651.5,-43 651.5,-37 651.5,-37 651.5,-19 651.5,-19 651.5,-13 657.5,-7 663.5,-7"/>
<text text-anchor="start" x="657.5" y="-31.8" font-family="Times,serif" font-size="14.00">nfkb</text>
<text text-anchor="start" x="666.5" y="-16.8" font-family="Times,serif" font-size="14.00">0</text>
<path fill="#6f6f6f" stroke="transparent" d="M700.5,-7C700.5,-7 710.5,-7 710.5,-7 715.5,-7 720.5,-12 720.5,-17 720.5,-17 720.5,-39 720.5,-39 720.5,-44 715.5,-49 710.5,-49 710.5,-49 700.5,-49 700.5,-49 695.5,-49 690.5,-44 690.5,-39 690.5,-39 690.5,-17 690.5,-17 690.5,-12 695.5,-7 700.5,-7"/>
<path fill="none" stroke="black" d="M700.5,-7C700.5,-7 710.5,-7 710.5,-7 715.5,-7 720.5,-12 720.5,-17 720.5,-17 720.5,-39 720.5,-39 720.5,-44 715.5,-49 710.5,-49 710.5,-49 700.5,-49 700.5,-49 695.5,-49 690.5,-44 690.5,-39 690.5,-39 690.5,-17 690.5,-17 690.5,-12 695.5,-7 700.5,-7"/>
<text text-anchor="start" x="696.5" y="-31.8" font-family="Times,serif" font-size="14.00">nik</text>
<text text-anchor="start" x="702" y="-16.8" font-family="Times,serif" font-size="14.00">0</text>
<path fill="#6f6f6f" stroke="transparent" d="M733.5,-7C733.5,-7 744.5,-7 744.5,-7 750,-7 755.5,-12.5 755.5,-18 755.5,-18 755.5,-38 755.5,-38 755.5,-43.5 750,-49 744.5,-49 744.5,-49 733.5,-49 733.5,-49 728,-49 722.5,-43.5 722.5,-38 722.5,-38 722.5,-18 722.5,-18 722.5,-12.5 728,-7 733.5,-7"/>
<path fill="none" stroke="black" d="M733.5,-7C733.5,-7 744.5,-7 744.5,-7 750,-7 755.5,-12.5 755.5,-18 755.5,-18 755.5,-38 755.5,-38 755.5,-43.5 750,-49 744.5,-49 744.5,-49 733.5,-49 733.5,-49 728,-49 722.5,-43.5 722.5,-38 722.5,-38 722.5,-18 722.5,-18 722.5,-12.5 728,-7 733.5,-7"/>
<text text-anchor="start" x="728.5" y="-31.8" font-family="Times,serif" font-size="14.00">p38</text>
<text text-anchor="start" x="735.5" y="-16.8" font-family="Times,serif" font-size="14.00">0</text>
<path fill="#6f6f6f" stroke="transparent" d="M766.17,-7C766.17,-7 774.83,-7 774.83,-7 779.17,-7 783.5,-11.33 783.5,-15.67 783.5,-15.67 783.5,-40.33 783.5,-40.33 783.5,-44.67 779.17,-49 774.83,-49 774.83,-49 766.17,-49 766.17,-49 761.83,-49 757.5,-44.67 757.5,-40.33 757.5,-40.33 757.5,-15.67 757.5,-15.67 757.5,-11.33 761.83,-7 766.17,-7"/>
<path fill="none" stroke="black" d="M766.17,-7C766.17,-7 774.83,-7 774.83,-7 779.17,-7 783.5,-11.33 783.5,-15.67 783.5,-15.67 783.5,-40.33 783.5,-40.33 783.5,-44.67 779.17,-49 774.83,-49 774.83,-49 766.17,-49 766.17,-49 761.83,-49 757.5,-44.67 757.5,-40.33 757.5,-40.33 757.5,-15.67 757.5,-15.67 757.5,-11.33 761.83,-7 766.17,-7"/>
<text text-anchor="start" x="763.5" y="-31.8" font-family="Times,serif" font-size="14.00">ph</text>
<text text-anchor="start" x="767" y="-16.8" font-family="Times,serif" font-size="14.00">0</text>
<path fill="#6f6f6f" stroke="transparent" d="M797.5,-7C797.5,-7 810.5,-7 810.5,-7 816.5,-7 822.5,-13 822.5,-19 822.5,-19 822.5,-37 822.5,-37 822.5,-43 816.5,-49 810.5,-49 810.5,-49 797.5,-49 797.5,-49 791.5,-49 785.5,-43 785.5,-37 785.5,-37 785.5,-19 785.5,-19 785.5,-13 791.5,-7 797.5,-7"/>
<path fill="none" stroke="black" d="M797.5,-7C797.5,-7 810.5,-7 810.5,-7 816.5,-7 822.5,-13 822.5,-19 822.5,-19 822.5,-37 822.5,-37 822.5,-43 816.5,-49 810.5,-49 810.5,-49 797.5,-49 797.5,-49 791.5,-49 785.5,-43 785.5,-37 785.5,-37 785.5,-19 785.5,-19 785.5,-13 791.5,-7 797.5,-7"/>
<text text-anchor="start" x="791.5" y="-31.8" font-family="Times,serif" font-size="14.00">pi3k</text>
<text text-anchor="start" x="800.5" y="-16.8" font-family="Times,serif" font-size="14.00">0</text>
<path fill="#6f6f6f" stroke="transparent" d="M835.83,-7C835.83,-7 847.17,-7 847.17,-7 852.83,-7 858.5,-12.67 858.5,-18.33 858.5,-18.33 858.5,-37.67 858.5,-37.67 858.5,-43.33 852.83,-49 847.17,-49 847.17,-49 835.83,-49 835.83,-49 830.17,-49 824.5,-43.33 824.5,-37.67 824.5,-37.67 824.5,-18.33 824.5,-18.33 824.5,-12.67 830.17,-7 835.83,-7"/>
<path fill="none" stroke="black" d="M835.83,-7C835.83,-7 847.17,-7 847.17,-7 852.83,-7 858.5,-12.67 858.5,-18.33 858.5,-18.33 858.5,-37.67 858.5,-37.67 858.5,-43.33 852.83,-49 847.17,-49 847.17,-49 835.83,-49 835.83,-49 830.17,-49 824.5,-43.33 824.5,-37.67 824.5,-37.67 824.5,-18.33 824.5,-18.33 824.5,-12.67 830.17,-7 835.83,-7"/>
<text text-anchor="start" x="830.5" y="-31.8" font-family="Times,serif" font-size="14.00">raf1</text>
<text text-anchor="start" x="838" y="-16.8" font-family="Times,serif" font-size="14.00">0</text>
<path fill="#6f6f6f" stroke="transparent" d="M869.83,-7C869.83,-7 879.17,-7 879.17,-7 883.83,-7 888.5,-11.67 888.5,-16.33 888.5,-16.33 888.5,-39.67 888.5,-39.67 888.5,-44.33 883.83,-49 879.17,-49 879.17,-49 869.83,-49 869.83,-49 865.17,-49 860.5,-44.33 860.5,-39.67 860.5,-39.67 860.5,-16.33 860.5,-16.33 860.5,-11.67 865.17,-7 869.83,-7"/>
<path fill="none" stroke="black" d="M869.83,-7C869.83,-7 879.17,-7 879.17,-7 883.83,-7 888.5,-11.67 888.5,-16.33 888.5,-16.33 888.5,-39.67 888.5,-39.67 888.5,-44.33 883.83,-49 879.17,-49 879.17,-49 869.83,-49 869.83,-49 865.17,-49 860.5,-44.33 860.5,-39.67 860.5,-39.67 860.5,-16.33 860.5,-16.33 860.5,-11.67 865.17,-7 869.83,-7"/>
<text text-anchor="start" x="866.5" y="-31.8" font-family="Times,serif" font-size="14.00">ras</text>
<text text-anchor="start" x="871" y="-16.8" font-family="Times,serif" font-size="14.00">0</text>
<path fill="#6f6f6f" stroke="transparent" d="M900.5,-7C900.5,-7 910.5,-7 910.5,-7 915.5,-7 920.5,-12 920.5,-17 920.5,-17 920.5,-39 920.5,-39 920.5,-44 915.5,-49 910.5,-49 910.5,-49 900.5,-49 900.5,-49 895.5,-49 890.5,-44 890.5,-39 890.5,-39 890.5,-17 890.5,-17 890.5,-12 895.5,-7 900.5,-7"/>
<path fill="none" stroke="black" d="M900.5,-7C900.5,-7 910.5,-7 910.5,-7 915.5,-7 920.5,-12 920.5,-17 920.5,-17 920.5,-39 920.5,-39 920.5,-44 915.5,-49 910.5,-49 910.5,-49 900.5,-49 900.5,-49 895.5,-49 890.5,-44 890.5,-39 890.5,-39 890.5,-17 890.5,-17 890.5,-12 895.5,-7 900.5,-7"/>
<text text-anchor="start" x="896.5" y="-31.8" font-family="Times,serif" font-size="14.00">sos</text>
<text text-anchor="start" x="902" y="-16.8" font-family="Times,serif" font-size="14.00">0</text>
<path fill="#6f6f6f" stroke="transparent" d="M933.83,-7C933.83,-7 945.17,-7 945.17,-7 950.83,-7 956.5,-12.67 956.5,-18.33 956.5,-18.33 956.5,-37.67 956.5,-37.67 956.5,-43.33 950.83,-49 945.17,-49 945.17,-49 933.83,-49 933.83,-49 928.17,-49 922.5,-43.33 922.5,-37.67 922.5,-37.67 922.5,-18.33 922.5,-18.33 922.5,-12.67 928.17,-7 933.83,-7"/>
<path fill="none" stroke="black" d="M933.83,-7C933.83,-7 945.17,-7 945.17,-7 950.83,-7 956.5,-12.67 956.5,-18.33 956.5,-18.33 956.5,-37.67 956.5,-37.67 956.5,-43.33 950.83,-49 945.17,-49 945.17,-49 933.83,-49 933.83,-49 928.17,-49 922.5,-43.33 922.5,-37.67 922.5,-37.67 922.5,-18.33 922.5,-18.33 922.5,-12.67 928.17,-7 933.83,-7"/>
<text text-anchor="start" x="928.5" y="-31.8" font-family="Times,serif" font-size="14.00">tnfa</text>
<text text-anchor="start" x="936" y="-16.8" font-family="Times,serif" font-size="14.00">0</text>
<path fill="#6f6f6f" stroke="transparent" d="M969.17,-7C969.17,-7 979.83,-7 979.83,-7 985.17,-7 990.5,-12.33 990.5,-17.67 990.5,-17.67 990.5,-38.33 990.5,-38.33 990.5,-43.67 985.17,-49 979.83,-49 979.83,-49 969.17,-49 969.17,-49 963.83,-49 958.5,-43.67 958.5,-38.33 958.5,-38.33 958.5,-17.67 958.5,-17.67 958.5,-12.33 963.83,-7 969.17,-7"/>
<path fill="none" stroke="black" d="M969.17,-7C969.17,-7 979.83,-7 979.83,-7 985.17,-7 990.5,-12.33 990.5,-17.67 990.5,-17.67 990.5,-38.33 990.5,-38.33 990.5,-43.67 985.17,-49 979.83,-49 979.83,-49 969.17,-49 969.17,-49 963.83,-49 958.5,-43.67 958.5,-38.33 958.5,-38.33 958.5,-17.67 958.5,-17.67 958.5,-12.33 963.83,-7 969.17,-7"/>
<text text-anchor="start" x="964.5" y="-31.8" font-family="Times,serif" font-size="14.00">tnfr</text>
<text text-anchor="start" x="971" y="-16.8" font-family="Times,serif" font-size="14.00">0</text>
<path fill="#6f6f6f" stroke="transparent" d="M1004.5,-7C1004.5,-7 1018.5,-7 1018.5,-7 1024.5,-7 1030.5,-13 1030.5,-19 1030.5,-19 1030.5,-37 1030.5,-37 1030.5,-43 1024.5,-49 1018.5,-49 1018.5,-49 1004.5,-49 1004.5,-49 998.5,-49 992.5,-43 992.5,-37 992.5,-37 992.5,-19 992.5,-19 992.5,-13 998.5,-7 1004.5,-7"/>
<path fill="none" stroke="black" d="M1004.5,-7C1004.5,-7 1018.5,-7 1018.5,-7 1024.5,-7 1030.5,-13 1030.5,-19 1030.5,-19 1030.5,-37 1030.5,-37 1030.5,-43 1024.5,-49 1018.5,-49 1018.5,-49 1004.5,-49 1004.5,-49 998.5,-49 992.5,-43 992.5,-37 992.5,-37 992.5,-19 992.5,-19 992.5,-13 998.5,-7 1004.5,-7"/>
<text text-anchor="start" x="998.5" y="-31.8" font-family="Times,serif" font-size="14.00">traf2</text>
<text text-anchor="start" x="1008" y="-16.8" font-family="Times,serif" font-size="14.00">0</text>
<polygon fill="none" stroke="black" points="8,-4 8,-52 1033,-52 1033,-4 8,-4"/>
</g>
<!-- 0000000111000000000000000000&#45;&gt;0000000011000000000000000000 -->
<g id="edge3" class="edge">
<title>0000000111000000000000000000&#45;&gt;0000000011000000000000000000</title>
<path fill="none" stroke="black" d="M520.5,-92C520.5,-83.97 520.5,-75.03 520.5,-66.47"/>
<polygon fill="black" stroke="black" points="524,-66.29 520.5,-56.3 517,-66.3 524,-66.29"/>
</g>
<!-- 0000000011000000000000000000&#45;&gt;0000000011000000000000000000 -->
<g id="edge4" class="edge">
<title>0000000011000000000000000000&#45;&gt;0000000011000000000000000000</title>
<path fill="none" stroke="black" d="M1041,-36C1052.6,-33.74 1059,-31.08 1059,-28 1059,-25.98 1056.2,-24.14 1051.1,-22.47"/>
<polygon fill="black" stroke="black" points="1051.55,-18.98 1041,-20 1049.88,-25.78 1051.55,-18.98"/>
</g>
</g>
</svg>
